<svg aria-hidden="true" style="position: absolute; width: 0; height: 0; overflow: hidden;" version="1.1" xmlns="http://www.w3.org/2000/svg" xmlns:xlink="http://www.w3.org/1999/xlink">
<defs>
<symbol id="icon-Group" viewBox="0 0 43 32">
<path fill="#ffd700" style="fill: var(--color1, #ffd700)" d="M42.443 0.523h-42.119v31.344h42.119v-31.344z"></path>
<path fill="#0057b7" style="fill: var(--color2, #0057b7)" d="M0.324 0.523h42.119v15.672h-42.119v-15.672z"></path>
</symbol>
<symbol id="icon-Mastercard" viewBox="0 0 49 32">
<path fill="#fafafa" style="fill: var(--color3, #fafafa)" d="M6.095 0.762h36.571c2.946 0 5.333 2.388 5.333 5.333v19.81c0 2.946-2.388 5.333-5.333 5.333h-36.571c-2.946 0-5.333-2.388-5.333-5.333v-19.81c0-2.946 2.388-5.333 5.333-5.333z"></path>
<path fill="none" stroke="#fafafa" style="stroke: var(--color3, #fafafa)" stroke-linejoin="miter" stroke-linecap="butt" stroke-miterlimit="4" stroke-width="1.5238" d="M6.095 0.762h36.571c2.946 0 5.333 2.388 5.333 5.333v19.81c0 2.946-2.388 5.333-5.333 5.333h-36.571c-2.946 0-5.333-2.388-5.333-5.333v-19.81c0-2.946 2.388-5.333 5.333-5.333z"></path>
<path fill="#ed0006" style="fill: var(--color4, #ed0006)" d="M24.381 23.29c-1.771 1.462-4.068 2.345-6.578 2.345-5.601 0-10.141-4.396-10.141-9.818s4.54-9.818 10.141-9.818c2.51 0 4.807 0.883 6.578 2.345 1.771-1.462 4.068-2.345 6.578-2.345 5.601 0 10.141 4.395 10.141 9.818s-4.54 9.818-10.141 9.818c-2.51 0-4.807-0.883-6.578-2.345z"></path>
<path fill="#f9a000" style="fill: var(--color5, #f9a000)" d="M24.381 23.29c2.18-1.801 3.563-4.48 3.563-7.472s-1.383-5.672-3.563-7.472c1.771-1.462 4.068-2.345 6.578-2.345 5.601 0 10.141 4.395 10.141 9.818s-4.54 9.818-10.141 9.818c-2.51 0-4.807-0.883-6.578-2.345z"></path>
<path fill="#ff5e00" style="fill: var(--color6, #ff5e00)" d="M24.381 23.29c2.18-1.801 3.563-4.48 3.563-7.472s-1.383-5.671-3.563-7.472c-2.18 1.801-3.563 4.48-3.563 7.472s1.383 5.672 3.563 7.472z"></path>
</symbol>
<symbol id="icon-x-close" viewBox="0 0 32 32">
<path stroke-linejoin="round" stroke-linecap="round" stroke-miterlimit="4" stroke-width="2.6667" d="M24 8l-16 16"></path>
<path stroke-linejoin="round" stroke-linecap="round" stroke-miterlimit="4" stroke-width="2.6667" d="M8 8l16 16"></path>
</symbol>
</defs>
</svg>
