<svg aria-hidden="true" style="position: absolute; width: 0; height: 0; overflow: hidden;" version="1.1" xmlns="http://www.w3.org/2000/svg" xmlns:xlink="http://www.w3.org/1999/xlink">
<defs>
<symbol id="icon-chocolate-3-converted" viewBox="0 0 32 32">
<path d="M14.437 6.089c-0.699 1.145-1.263 2.088-1.253 2.095 0.133 0.096 4.769 2.972 4.803 2.979 0.045 0.011 2.549-4.039 2.544-4.113 0-0.020-1.015-0.667-2.253-1.437-5.565-3.306-6.351-3.803-7.137-4.301l4.726 2.797-0.16-0.101-1.269 2.083zM22.7 8.6c-0.385 0.607-2.435 4.003-2.423 4.013 0.075 0.063 4.487 2.8 4.515 2.8 0.019 0 0.092-0.101 0.161-0.224l0.128-0.223-0.208-0.161c-0.752-0.588-1.572-1.548-1.863-2.183-0.46-1.005-0.46-2.384 0-3.553 0.075-0.188 0.136-0.361 0.136-0.385 0-0.037-0.279-0.204-0.343-0.204-0.016 0-0.063 0.055-0.104 0.12zM10.513 12.513c-0.685 1.131-1.225 2.075-1.2 2.099 0.175 0.161 4.788 2.987 4.821 2.952 0.089-0.059 0.899-1.367 1.699-2.682l0.749-1.327c0.049-0.093-0.167-0.241-2.344-1.603-1.32-0.824-2.417-1.497-2.439-1.496-0.023 0.001-0.601 0.927-1.287 2.057zM18.84 14.947c-0.081 0.101-2.467 4.027-2.467 4.059 0 0.057 4.375 2.76 4.421 2.731 0.027-0.016 0.617-0.932 1.313-2.035 1.052-1.667 1.252-2.016 1.192-2.072-0.43-0.319-1.862-1.227-3.305-2.122l-1.087-0.628c-0.027 0.018-0.049 0.040-0.067 0.066l-0.001 0.001zM6.653 18.849c-0.667 1.097-1.224 2.027-1.239 2.065-0.017 0.048 0.768 0.569 2.357 1.565 1.311 0.821 2.401 1.493 2.424 1.493 0.047 0 2.497-4.001 2.497-4.077 0-0.041-4.749-3.045-4.808-3.041-0.011 0.001-0.564 0.899-1.232 1.995zM13.733 23.303c-0.675 1.111-1.227 2.048-1.227 2.083 0 0.036 0.957 0.665 2.127 1.399 1.761 1.104 2.137 1.321 2.193 1.261 0.177-0.188 2.537-4.009 2.499-4.045-0.075-0.103-1.495-1.002-2.922-1.889l-1.43-0.829c-0.007 0.001-0.565 0.911-1.24 2.021z"></path>
</symbol>
</defs>
</svg>
