<svg aria-hidden="true" style="position: absolute; width: 0; height: 0; overflow: hidden;" version="1.1" xmlns="http://www.w3.org/2000/svg" xmlns:xlink="http://www.w3.org/1999/xlink">
<defs>
<symbol id="icon-chocolate-3-converted" viewBox="0 0 32 32">
<path d="M14.437 6.089c-0.699 1.145-1.263 2.088-1.253 2.095 0.133 0.096 4.769 2.972 4.803 2.979 0.045 0.011 2.549-4.039 2.544-4.113 0-0.020-1.015-0.667-2.253-1.437-5.565-3.306-6.351-3.803-7.137-4.301l4.726 2.797-0.16-0.101-1.269 2.083zM22.7 8.6c-0.385 0.607-2.435 4.003-2.423 4.013 0.075 0.063 4.487 2.8 4.515 2.8 0.019 0 0.092-0.101 0.161-0.224l0.128-0.223-0.208-0.161c-0.752-0.588-1.572-1.548-1.863-2.183-0.46-1.005-0.46-2.384 0-3.553 0.075-0.188 0.136-0.361 0.136-0.385 0-0.037-0.279-0.204-0.343-0.204-0.016 0-0.063 0.055-0.104 0.12zM10.513 12.513c-0.685 1.131-1.225 2.075-1.2 2.099 0.175 0.161 4.788 2.987 4.821 2.952 0.089-0.059 0.899-1.367 1.699-2.682l0.749-1.327c0.049-0.093-0.167-0.241-2.344-1.603-1.32-0.824-2.417-1.497-2.439-1.496-0.023 0.001-0.601 0.927-1.287 2.057zM18.84 14.947c-0.081 0.101-2.467 4.027-2.467 4.059 0 0.057 4.375 2.76 4.421 2.731 0.027-0.016 0.617-0.932 1.313-2.035 1.052-1.667 1.252-2.016 1.192-2.072-0.43-0.319-1.862-1.227-3.305-2.122l-1.087-0.628c-0.027 0.018-0.049 0.040-0.067 0.066l-0.001 0.001zM6.653 18.849c-0.667 1.097-1.224 2.027-1.239 2.065-0.017 0.048 0.768 0.569 2.357 1.565 1.311 0.821 2.401 1.493 2.424 1.493 0.047 0 2.497-4.001 2.497-4.077 0-0.041-4.749-3.045-4.808-3.041-0.011 0.001-0.564 0.899-1.232 1.995zM13.733 23.303c-0.675 1.111-1.227 2.048-1.227 2.083 0 0.036 0.957 0.665 2.127 1.399 1.761 1.104 2.137 1.321 2.193 1.261 0.177-0.188 2.537-4.009 2.499-4.045-0.075-0.103-1.495-1.002-2.922-1.889l-1.43-0.829c-0.007 0.001-0.565 0.911-1.24 2.021z"></path>
</symbol>
<symbol id="icon-fi-rr-angle-small-left-1" viewBox="0 0 32 32">
<path d="M16.947 17.867c-0.124 0.125-0.271 0.224-0.434 0.292s-0.337 0.103-0.513 0.103-0.35-0.035-0.513-0.103c-0.162-0.068-0.31-0.167-0.434-0.292l-6.107-6.12c-0.124-0.125-0.271-0.224-0.434-0.292s-0.337-0.103-0.513-0.103c-0.176 0-0.35 0.035-0.513 0.103s-0.31 0.167-0.434 0.292c-0.248 0.25-0.388 0.588-0.388 0.94s0.139 0.69 0.388 0.94l6.12 6.12c0.75 0.749 1.767 1.17 2.827 1.17s2.077-0.421 2.827-1.17l6.12-6.12c0.246-0.248 0.385-0.584 0.387-0.933 0.001-0.175-0.033-0.349-0.099-0.512s-0.164-0.31-0.288-0.435c-0.124-0.125-0.271-0.224-0.434-0.292s-0.337-0.103-0.513-0.103-0.35 0.035-0.513 0.103c-0.162 0.068-0.31 0.167-0.434 0.292l-6.107 6.12z"></path>
</symbol>
<symbol id="icon-Icon" viewBox="0 0 48 32">
<path d="M2.48 0.074c-0.578 0.178-1.104 0.632-1.316 1.144-0.16 0.382-0.16 1.182 0 1.564 0.156 0.376 0.542 0.782 0.956 1.006l0.32 0.172h43.12l0.328-0.176c0.38-0.204 0.806-0.66 0.962-1.036 0.142-0.338 0.142-1.158 0-1.496-0.216-0.438-0.545-0.791-0.951-1.030l-0.011-0.006-0.328-0.176-21.44-0.014c-11.792-0.006-21.53 0.014-21.64 0.048zM2.48 14.074c-0.578 0.178-1.104 0.632-1.316 1.144-0.16 0.382-0.16 1.182 0 1.564 0.156 0.376 0.542 0.782 0.956 1.006l0.32 0.172h43.12l0.328-0.176c0.38-0.204 0.806-0.66 0.962-1.036 0.142-0.338 0.142-1.158 0-1.496-0.216-0.438-0.545-0.791-0.951-1.030l-0.011-0.006-0.328-0.176-21.44-0.014c-11.792-0.006-21.53 0.014-21.64 0.048zM2.48 28.074c-0.578 0.178-1.104 0.632-1.316 1.144-0.16 0.382-0.16 1.182 0 1.564 0.156 0.376 0.542 0.782 0.956 1.006l0.32 0.172h43.12l0.328-0.176c0.38-0.204 0.806-0.66 0.962-1.036 0.142-0.338 0.142-1.158 0-1.496-0.216-0.438-0.545-0.791-0.951-1.030l-0.011-0.006-0.328-0.176-21.44-0.014c-11.792-0.006-21.53 0.014-21.64 0.048z"></path>
</symbol>
<symbol id="icon-instagram" viewBox="0 0 31 32">
<path d="M9.769 1.241c-1.599 0.154-3.105 1.013-4.1 2.337-0.364 0.484-0.796 1.379-0.969 2.008l-0.142 0.515v12.050l0.141 0.515c0.191 0.694 0.668 1.64 1.098 2.177 0.964 1.199 2.372 2.006 3.971 2.171l0.025 0.002c0.639 0.067 10.674 0.067 11.313 0 1.624-0.167 3.032-0.974 3.987-2.161l0.009-0.011c0.43-0.537 0.907-1.483 1.098-2.177l0.141-0.515v-12.050l-0.142-0.515c-0.578-2.076-2.197-3.672-4.244-4.208l-0.042-0.009c-0.243-0.054-0.542-0.101-0.846-0.129l-0.030-0.002c-0.682-0.065-10.591-0.061-11.266 0.003zM21.502 2.947c0.822 0.217 1.524 0.652 2.062 1.239l0.003 0.003c0.435 0.462 0.676 0.825 0.876 1.322 0.285 0.703 0.278 0.556 0.263 6.785l-0.013 5.752-0.141 0.412c-0.27 0.786-0.731 1.447-1.33 1.951l-0.007 0.005c-0.568 0.492-1.279 0.832-2.064 0.95l-0.023 0.003c-0.469 0.067-10.89 0.067-11.359 0-1.56-0.226-2.89-1.355-3.423-2.909l-0.141-0.412-0.013-5.752c-0.015-6.229-0.022-6.082 0.263-6.785 0.2-0.497 0.441-0.86 0.876-1.322 0.737-0.783 1.443-1.142 2.609-1.325 0.071-0.011 2.631-0.017 5.689-0.011 4.986 0.008 5.594 0.018 5.874 0.094zM20.822 5.767c-0.363 0.081-0.63 0.4-0.63 0.782 0 0.034 0.002 0.067 0.006 0.099l-0-0.004c0.079 0.823 1.182 1.038 1.56 0.305 0.117-0.225 0.097-0.619-0.040-0.823-0.158-0.229-0.419-0.378-0.714-0.378-0.064 0-0.127 0.007-0.187 0.020l0.006-0.001zM14.642 7.285c-0.496 0.087-0.939 0.243-1.345 0.458l0.025-0.012c-1.014 0.502-1.684 1.181-2.202 2.233-0.566 1.146-0.657 2.37-0.268 3.604 0.495 1.572 1.805 2.809 3.441 3.25 0.551 0.149 1.913 0.14 2.45-0.015 1.464-0.425 2.558-1.354 3.187-2.707 0.275-0.594 0.435-1.289 0.435-2.021 0-0.755-0.17-1.47-0.474-2.109l0.013 0.030c-0.932-1.963-3.13-3.096-5.259-2.71zM15.908 8.911c1.325 0.215 2.301 1.067 2.667 2.333 0.554 1.916-0.861 3.903-2.874 4.035-1.568 0.103-3.009-0.989-3.343-2.532-0.081-0.373-0.067-1.053 0.028-1.427 0.326-1.274 1.414-2.247 2.701-2.413 0.422-0.054 0.461-0.054 0.822 0.004z"></path>
</symbol>
<symbol id="icon-menu-03-1" viewBox="0 0 32 32">
<path d="M3.462 7.005c-0.156 0.092-0.288 0.209-0.393 0.348l-0.002 0.003c-0.144 0.206-0.16 0.266-0.16 0.645s0.016 0.439 0.16 0.645c0.088 0.125 0.266 0.283 0.397 0.352l0.235 0.125 24.71-0.027 0.197-0.134c0.109-0.073 0.263-0.227 0.343-0.342 0.128-0.184 0.146-0.258 0.146-0.623 0-0.373-0.016-0.435-0.16-0.64-0.108-0.141-0.239-0.259-0.389-0.347l-0.006-0.003-0.235-0.125h-24.606l-0.235 0.125zM3.462 15.005c-0.156 0.092-0.288 0.209-0.393 0.348l-0.002 0.003c-0.144 0.206-0.16 0.266-0.16 0.645s0.016 0.439 0.16 0.645c0.088 0.125 0.266 0.283 0.397 0.352l0.235 0.125 24.71-0.027 0.197-0.134c0.109-0.073 0.263-0.227 0.343-0.342 0.128-0.184 0.146-0.258 0.146-0.623 0-0.373-0.016-0.435-0.16-0.64-0.108-0.142-0.239-0.259-0.389-0.347l-0.006-0.003-0.235-0.125h-24.606l-0.235 0.125zM3.462 23.005c-0.156 0.092-0.288 0.209-0.393 0.348l-0.002 0.003c-0.144 0.206-0.16 0.266-0.16 0.645s0.016 0.439 0.16 0.645c0.088 0.125 0.266 0.283 0.397 0.352l0.235 0.125 24.71-0.027 0.197-0.134c0.109-0.073 0.263-0.227 0.343-0.342 0.128-0.184 0.146-0.258 0.146-0.623 0-0.373-0.016-0.435-0.16-0.64-0.108-0.142-0.239-0.259-0.389-0.347l-0.006-0.003-0.235-0.125h-24.606l-0.235 0.125z"></path>
</symbol>
<symbol id="icon-twitter" viewBox="0 0 32 32">
<path d="M21.213 2.829c-1.684 0.189-3.165 0.937-4.282 2.050l0-0c-1.315 1.315-2.104 3.117-2.104 4.814v0.44h-0.21c-1.051 0-3.234-0.578-4.522-1.197-1.686-0.811-3.134-2.141-4.851-4.456-0.162-0.224-0.319-0.419-0.485-0.606l0.007 0.007c-0.299-0.264-0.928-0.338-1.293-0.152-0.434 0.221-0.648 0.626-1.042 1.952-0.327 1.069-0.582 2.331-0.717 3.629l-0.008 0.089c-0.036 0.484-0.057 1.049-0.057 1.618 0 0.561 0.020 1.118 0.059 1.669l-0.004-0.074c0.406 4.115 2.39 7.4 5.87 9.717 0.293 0.195 0.531 0.371 0.531 0.394 0 0.061-1.070 0.493-1.814 0.733-1.365 0.44-2.565 0.635-4.186 0.683-0.558 0.018-1.094 0.054-1.192 0.085-0.234 0.070-0.523 0.33-0.651 0.582-0.219 0.429-0.088 1.098 0.275 1.403 0.523 0.442 2.738 1.437 4.318 1.941 4.014 1.283 8.594 1.256 12.331-0.072 3.832-1.36 6.938-3.818 9.035-7.147 1.928-3.062 2.949-6.744 2.949-10.64v-0.989l0.354-0.424c0.536-0.643 1.112-1.552 1.485-2.334 0.499-1.054 0.829-2.062 0.829-2.538 0-0.682-0.488-1.176-1.162-1.179-0.347-0.002-0.496 0.061-1.104 0.453-0.561 0.369-1.209 0.725-1.885 1.030l-0.089 0.036c-0.784 0.341-0.747 0.341-1.123 0.035-1.236-0.989-2.823-1.587-4.549-1.587-0.252 0-0.501 0.013-0.746 0.038l0.031-0.003zM22.706 5.253c1.030 0.168 1.81 0.56 2.589 1.302 0.27 0.259 0.576 0.514 0.678 0.566 0.315 0.163 0.734 0.126 1.44-0.128 0.338-0.12 0.634-0.219 0.656-0.219 0.077-0.002-0.261 0.442-0.707 0.928-0.24 0.262-0.482 0.566-0.539 0.678-0.112 0.221-0.128 0.558-0.053 1.192 0.054 0.464-0.019 2.176-0.133 3.067-0.821 6.514-4.734 11.411-10.632 13.304-2.579 0.829-5.419 0.986-8.274 0.461-0.634-0.116-1.153-0.24-1.663-0.388l0.119 0.030c-0.045-0.016 0.205-0.11 0.555-0.211 1.57-0.454 3.934-1.598 4.712-2.282 0.238-0.224 0.387-0.541 0.387-0.892 0-0.313-0.118-0.598-0.311-0.815l0.001 0.001c-0.080-0.083-0.498-0.328-0.928-0.544-0.908-0.438-1.689-0.92-2.413-1.473l0.034 0.025c-2.33-1.758-3.683-4.093-4.098-7.061-0.123-0.88-0.123-2.597 0-3.515 0.102-0.779 0.309-1.867 0.352-1.867 0.016 0 0.235 0.235 0.486 0.52 1.142 1.301 2.496 2.366 3.891 3.059 1.923 0.957 3.691 1.411 6.024 1.547 1.251 0.074 1.523 0.037 1.862-0.254 0.392-0.336 0.413-0.421 0.448-1.778 0.032-1.286 0.085-1.651 0.334-2.275 0.259-0.65 0.554-1.083 1.115-1.645 0.608-0.61 1.053-0.888 1.819-1.144 0.835-0.278 1.403-0.326 2.246-0.19z"></path>
</symbol>
<symbol id="icon-x-close" viewBox="0 0 32 32">
<path d="M7.462 7.005c-0.327 0.169-0.552 0.498-0.571 0.88l-0 0.003c-0.013 0.174 0.007 0.408 0.043 0.521 0.053 0.166 0.778 0.919 3.752 3.898l3.686 3.694-3.686 3.694c-2.974 2.979-3.699 3.733-3.752 3.898-0.106 0.335-0.047 0.798 0.136 1.057 0.299 0.425 0.906 0.593 1.399 0.389 0.137-0.057 1.314-1.198 3.865-3.746l3.666-3.663 3.694 3.686c4.024 4.018 3.816 3.839 4.415 3.795 0.543-0.025 0.977-0.459 1.001-1l0-0.002c0.043-0.598 0.222-0.39-3.795-4.414l-3.686-3.694 3.663-3.666c2.549-2.551 3.689-3.728 3.746-3.865 0.205-0.493 0.037-1.099-0.389-1.399-0.259-0.183-0.722-0.242-1.057-0.136-0.166 0.053-0.919 0.778-3.898 3.752l-3.694 3.686-3.666-3.663c-2.557-2.554-3.727-3.689-3.865-3.746-0.135-0.052-0.291-0.082-0.453-0.082-0.201 0-0.391 0.046-0.561 0.128l0.008-0.003z"></path>
</symbol>
</defs>
</svg>
