<svg aria-hidden="true" style="position: absolute; width: 0; height: 0; overflow: hidden;" version="1.1" xmlns="http://www.w3.org/2000/svg" xmlns:xlink="http://www.w3.org/1999/xlink">
<defs>
<symbol id="icon-facebook" viewBox="0 0 32 32">
<path fill="none" stroke="#fff" style="stroke: var(--color1, #fff)" stroke-linejoin="miter" stroke-linecap="butt" stroke-miterlimit="4" stroke-width="0.7273" d="M7.273 0.364h17.455c3.816 0 6.909 3.093 6.909 6.909v17.455c0 3.816-3.093 6.909-6.909 6.909h-17.455c-3.816 0-6.909-3.093-6.909-6.909v-17.455c0-3.816 3.093-6.909 6.909-6.909z"></path>
<path fill="#fff" style="fill: var(--color1, #fff)" opacity="0.8" d="M18.24 8.771h0.611v2.291h-0.764c-0.305 0-0.611 0-0.764 0.153s-0.153 0.305-0.153 0.662v0.815h1.68v1.935h-1.68v8.4h-2.596v-8.451h-1.375v-1.935h1.375v-0.662c0-1.12 0.153-1.935 0.458-2.291 0.458-0.662 1.375-0.967 2.749-0.967 0.153 0.051 0.305 0.051 0.458 0.051z"></path>
</symbol>
<symbol id="icon-instagram" viewBox="0 0 32 32">
<path fill="none" stroke="#fff" style="stroke: var(--color1, #fff)" stroke-linejoin="miter" stroke-linecap="butt" stroke-miterlimit="4" stroke-width="0.7273" d="M7.273 0.364h17.455c3.816 0 6.909 3.093 6.909 6.909v17.455c0 3.816-3.093 6.909-6.909 6.909h-17.455c-3.816 0-6.909-3.093-6.909-6.909v-17.455c0-3.816 3.093-6.909 6.909-6.909z"></path>
<path fill="#fff" style="fill: var(--color1, #fff)" opacity="0.8" d="M24.093 12.663c-0.010-0.722-0.148-1.408-0.393-2.042l0.014 0.040c-0.434-1.096-1.286-1.946-2.354-2.368l-0.028-0.010c-0.586-0.226-1.263-0.364-1.971-0.378l-0.006-0c-0.87-0.039-1.146-0.051-3.355-0.051s-2.492 0-3.356 0.051c-0.714 0.015-1.391 0.152-2.018 0.392l0.041-0.014c-1.097 0.432-1.949 1.282-2.372 2.35l-0.010 0.028c-0.227 0.585-0.365 1.261-0.379 1.968l-0 0.006c-0.039 0.87-0.051 1.145-0.051 3.351s0 2.487 0.051 3.351c0.014 0.713 0.152 1.39 0.392 2.016l-0.014-0.041c0.434 1.095 1.287 1.945 2.355 2.367l0.028 0.010c0.63 0.246 1.298 0.385 1.977 0.407 0.871 0.039 1.147 0.050 3.356 0.050s2.492 0 3.356-0.051c0.714-0.014 1.392-0.152 2.018-0.392l-0.041 0.014c1.096-0.432 1.948-1.283 2.372-2.35l0.010-0.028c0.238-0.633 0.366-1.298 0.379-1.975 0.039-0.868 0.051-1.144 0.051-3.351-0.002-2.205-0.002-2.485-0.052-3.35zM15.993 20.156c-0.001 0-0.002 0-0.004 0-2.307 0-4.177-1.869-4.178-4.175v-0c0.001-2.306 1.871-4.175 4.177-4.175 0.002 0 0.003 0 0.005 0h-0c2.309 0 4.182 1.869 4.182 4.175-0.002 2.307-1.872 4.176-4.179 4.176-0.001 0-0.002 0-0.003 0h0zM20.342 12.625c-0.538 0-0.973-0.436-0.973-0.973s0.436-0.973 0.973-0.973v0c0.008-0 0.017-0 0.027-0 0.538 0 0.974 0.436 0.974 0.974s-0.436 0.974-0.974 0.974c-0.009 0-0.019-0-0.028-0l0.001 0z"></path>
<path fill="#fff" style="fill: var(--color1, #fff)" opacity="0.8" d="M15.995 18.531c1.407 0 2.548-1.141 2.548-2.548s-1.141-2.548-2.548-2.548v0c-1.389 0.024-2.505 1.156-2.505 2.548s1.117 2.524 2.503 2.548l0.002 0z"></path>
</symbol>
<symbol id="icon-youtube" viewBox="0 0 32 32">
<path fill="#fff" style="fill: var(--color1, #fff)" opacity="0.8" d="M24.24 6c-1.36-0.080-4.16-0.16-8.4-0.16h-0.56c-4.080 0-6.8 0.080-8.16 0.24-1.84 0.16-3.12 0.64-3.84 1.28-0.64 0.56-1.12 1.6-1.28 2.96-0.080 0.88-0.16 2.72-0.16 5.52v0.4c0 2.64 0.080 4.48 0.24 5.36 0.24 1.28 0.64 2.24 1.44 2.8 0.8 0.64 2.16 1.040 4.080 1.2 1.36 0.080 4.16 0.16 8.4 0.16h0.56c4.080 0 6.8-0.080 8.16-0.24 1.84-0.16 3.12-0.64 3.84-1.28 0.64-0.56 1.12-1.6 1.28-2.96 0.080-0.88 0.16-2.72 0.16-5.52v-0.4c0-2.64-0.080-4.48-0.24-5.36-0.24-1.28-0.64-2.24-1.44-2.8-0.8-0.64-2.16-1.040-4.080-1.2zM21.12 15.84l-8.8 5.28v-10.56l8.8 5.28z"></path>
</symbol>
</defs>
</svg>
