<svg aria-hidden="true" style="position: absolute; width: 0; height: 0; overflow: hidden;" version="1.1" xmlns="http://www.w3.org/2000/svg" xmlns:xlink="http://www.w3.org/1999/xlink">
<defs>
<symbol id="icon-hr-dots" viewBox="0 0 195 32">
<path fill="#d9d9d9" style="fill: var(--color1, #d9d9d9)" d="M113.053 16c0 8.837-7.163 16-16 16s-16-7.163-16-16c0-8.837 7.163-16 16-16s16 7.163 16 16z"></path>
<path fill="#d31342" style="fill: var(--color2, #d31342)" d="M31.599 15.443c0.58-0.539 0.524-1.366-0.125-1.846l-14.301-10.577c-0.649-0.48-1.69-0.47-2.325 0.023l-14.35 11.118c-0.635 0.492-0.667 1.318-0.069 1.843l0.36 0.317c0.597 0.525 1.562 0.588 2.154 0.139l1.072-0.812v11.884c0 0.729 0.699 1.319 1.561 1.319h5.594c0.862 0 1.561-0.59 1.561-1.319v-8.314h7.135v8.314c-0.012 0.729 0.604 1.319 1.466 1.319h5.928c0.862 0 1.561-0.59 1.561-1.319v-11.717c0 0 0.296 0.219 0.662 0.491s1.131 0.054 1.711-0.486l0.407-0.378z"></path>
<path fill="#d9d9d9" style="fill: var(--color1, #d9d9d9)" d="M193.053 16c0 8.837-7.163 16-16 16s-16-7.163-16-16c0-8.837 7.163-16 16-16s16 7.163 16 16z"></path>
</symbol>
<symbol id="icon-Group-8" viewBox="0 0 256 32">
<path fill="#c7133e" style="fill: var(--color3, #c7133e)" d="M144 16c0 8.837-7.163 16-16 16s-16-7.163-16-16c0-8.837 7.163-16 16-16s16 7.163 16 16z"></path>
<path fill="#c7133e" style="fill: var(--color3, #c7133e)" d="M32 16c0 8.837-7.163 16-16 16s-16-7.163-16-16c0-8.837 7.163-16 16-16s16 7.163 16 16z"></path>
<path fill="#c7133e" style="fill: var(--color3, #c7133e)" d="M256 16c0 8.837-7.163 16-16 16s-16-7.163-16-16c0-8.837 7.163-16 16-16s16 7.163 16 16z"></path>
</symbol>
<symbol id="icon-untitled" viewBox="0 0 49 32">
<path fill="#e1e1e1" style="fill: var(--color4, #e1e1e1)" d="M35.781 0c2.155 0 4.191 0.52 6.107 1.561s3.473 2.537 4.67 4.488c1.15 1.951 1.724 4.249 1.724 6.894s-0.718 5.225-2.155 7.74c-0.479 0.911-1.341 2.081-2.587 3.512-1.293 1.431-2.491 2.667-3.592 3.707l-4.526 4.098-3.233-4.813c2.251-1.257 4.239-2.818 5.963-4.683 1.724-1.821 2.587-3.491 2.587-5.008 0-0.78-0.192-1.409-0.575-1.886-1.676 1.084-3.545 1.626-5.604 1.626-1.485 0-2.898-0.412-4.239-1.236-1.389-0.78-2.491-1.821-3.305-3.122-0.862-1.258-1.293-2.558-1.293-3.902 0-1.518 0.503-2.97 1.509-4.358 0.958-1.388 2.227-2.515 3.808-3.382 1.533-0.824 3.113-1.236 4.742-1.236zM9.987 0c2.155 0 4.191 0.52 6.107 1.561s3.473 2.537 4.67 4.488c1.15 1.951 1.724 4.249 1.724 6.894 0 1.864-0.263 3.534-0.79 5.008-0.527 1.518-1.437 3.1-2.73 4.748-1.245 1.561-2.419 2.862-3.521 3.902-1.102 1.084-3.018 2.884-5.748 5.398l-3.233-4.813c2.251-1.257 4.239-2.818 5.963-4.683 1.724-1.821 2.586-3.491 2.586-5.008 0-0.78-0.192-1.409-0.575-1.886-1.676 1.084-3.545 1.626-5.604 1.626-1.485 0-2.898-0.412-4.239-1.236-1.389-0.78-2.491-1.821-3.305-3.122-0.862-1.258-1.293-2.558-1.293-3.902 0-1.518 0.479-2.97 1.437-4.358s2.227-2.515 3.808-3.382c1.533-0.824 3.113-1.236 4.742-1.236z"></path>
</symbol>
</defs>
</svg>
