<svg aria-hidden="true" style="position: absolute; width: 0; height: 0; overflow: hidden;" version="1.1"
    xmlns="http://www.w3.org/2000/svg" xmlns:xlink="http://www.w3.org/1999/xlink">
    <defs>
        <svg id="btn-title-icon" width="8" height="10" fill="none" viewBox="0 0 8 10"
            xmlns="http://www.w3.org/2000/svg">
            <path d="M1.61646 1L6.04413 5L1.61646 9" stroke-width="2" stroke-linecap="round" stroke-linejoin="round" />
        </svg>
        <symbol id="icon-close" viewBox="0 0 32 32">
            <path
                d="M32 3.223l-3.223-3.223-12.777 12.777-12.777-12.777-3.223 3.223 12.777 12.777-12.777 12.777 3.223 3.223 12.777-12.777 12.777 12.777 3.223-3.223-12.777-12.777 12.777-12.777z">
            </path>
        </symbol>

        <symbol id="about-ice-cream-1" viewBox="0 0 32 32">
            <path fill="#bd852d" style="fill: var(--color1, #bd852d)"
                d="M29.124 7.639c-1.005-1.007-2.649-1.076-3.773-0.128l-6.401 6.401 3.757 3.917 6.419-6.419c0.501-0.508 0.778-1.177 0.778-1.884 0-0.715-0.277-1.385-0.78-1.887z">
            </path>
            <path fill="#ca9d57" style="fill: var(--color2, #ca9d57)"
                d="M25.884 8.578c1.124-0.948 2.767-0.878 3.773 0.128 0.063 0.063 0.113 0.137 0.169 0.205-0.112-0.478-0.347-0.918-0.702-1.272-1.005-1.007-2.649-1.076-3.773-0.128l-6.401 6.401 0.783 0.817 6.151-6.151z">
            </path>
            <path fill="#f85766" style="fill: var(--color3, #f85766)"
                d="M12.867 4.656c-0.427-0.74-1.117-1.269-1.943-1.491-0.652-0.174-1.324-0.138-1.943 0.094l-0.823-1.426c-0.147-0.255-0.474-0.342-0.728-0.195-0.255 0.147-0.343 0.474-0.195 0.729l0.824 1.427c-1.18 0.977-1.524 2.692-0.733 4.062 0.427 0.74 1.117 1.269 1.943 1.491 0.276 0.074 0.556 0.11 0.834 0.11 0.555 0 1.101-0.146 1.594-0.43 1.528-0.882 2.054-2.843 1.171-4.371z">
            </path>
            <path fill="#f97985" style="fill: var(--color4, #f97985)"
                d="M12.867 4.656c-0.427-0.74-1.117-1.269-1.943-1.491-0.652-0.174-1.324-0.138-1.943 0.094l-0.823-1.426c-0.147-0.255-0.474-0.342-0.728-0.195-0.174 0.1-0.262 0.284-0.259 0.471 0.181 0.003 0.357 0.090 0.454 0.258l0.823 1.426c0.619-0.231 1.291-0.268 1.943-0.094 0.826 0.221 1.516 0.75 1.943 1.491 0.671 1.163 0.526 2.575-0.255 3.573 1.224-0.968 1.591-2.716 0.787-4.107z">
            </path>
            <path fill="#ba414d" style="fill: var(--color5, #ba414d)"
                d="M3.537 20.8l2.427 9.212c0.306 1.171 1.365 1.988 2.575 1.988h13.781c1.211 0 2.269-0.818 2.574-1.987l2.427-9.213h-23.785z">
            </path>
            <path fill="#ab2b37" style="fill: var(--color6, #ab2b37)"
                d="M28.229 20.8h-25.6c-0.295 0-0.533 0.238-0.533 0.533s0.238 0.533 0.533 0.533h1.197l0.956 3.346c0.066 0.229 0.275 0.387 0.513 0.387h2.133v1.067c0 0.433 0.169 0.835 0.466 1.124 0.299 0.308 0.701 0.476 1.134 0.476 0.882 0 1.6-0.718 1.6-1.6v-1.067h1.067v1.067c0 0.433 0.169 0.835 0.466 1.124 0.299 0.308 0.701 0.476 1.134 0.476 0.882 0 1.6-0.718 1.6-1.6v-1.067h1.067v1.067c0 0.433 0.169 0.835 0.466 1.124 0.299 0.308 0.701 0.476 1.134 0.476 0.882 0 1.6-0.718 1.6-1.6v-1.067h1.067v1.067c0 0.433 0.169 0.835 0.466 1.124 0.299 0.308 0.701 0.476 1.134 0.476 0.882 0 1.6-0.718 1.6-1.6v-1.067h2.133c0.238 0 0.447-0.158 0.513-0.387l0.956-3.346h1.197c0.295 0 0.533-0.238 0.533-0.533s-0.238-0.533-0.533-0.533z">
            </path>
            <path fill="#fcb23c" style="fill: var(--color7, #fcb23c)"
                d="M10.629 13.333c-3.823 0-6.933 3.11-6.933 6.933v0.533h13.867v-0.533c0-3.823-3.11-6.933-6.933-6.933z">
            </path>
            <path fill="#fdc163" style="fill: var(--color8, #fdc163)"
                d="M10.629 13.333c-3.823 0-6.933 3.11-6.933 6.933v0.533h0.027c0.274-3.574 3.263-6.4 6.906-6.4s6.632 2.826 6.906 6.4h0.027v-0.533c0-3.823-3.11-6.933-6.933-6.933z">
            </path>
            <path fill="#f85766" style="fill: var(--color3, #f85766)"
                d="M20.229 13.333c-3.823 0-6.933 3.11-6.933 6.933v0.533h13.867v-0.533c0-3.823-3.11-6.933-6.933-6.933z">
            </path>
            <path fill="#f97985" style="fill: var(--color4, #f97985)"
                d="M20.229 13.333c-1.319 0-2.549 0.377-3.601 1.020 0.786-0.31 1.639-0.486 2.534-0.486 3.823 0 6.933 3.11 6.933 6.933h1.067v-0.533c0-3.823-3.11-6.933-6.933-6.933z">
            </path>
            <path fill="#b376dd" style="fill: var(--color9, #b376dd)"
                d="M15.429 6.933c-3.823 0-6.933 3.11-6.933 6.933s3.11 6.933 6.933 6.933 6.933-3.11 6.933-6.933-3.11-6.933-6.933-6.933z">
            </path>
            <path fill="#c291e4" style="fill: var(--color10, #c291e4)"
                d="M15.429 8c3.643 0 6.632 2.826 6.906 6.4 0.014-0.177 0.027-0.353 0.027-0.533 0-3.823-3.11-6.933-6.933-6.933s-6.933 3.11-6.933 6.933c0 0.18 0.013 0.357 0.027 0.533 0.274-3.574 3.263-6.4 6.906-6.4z">
            </path>
            <path fill="#fedde0" style="fill: var(--color11, #fedde0)"
                d="M16.496 0c-0.882 0-1.6 0.718-1.6 1.6v5.867h1.067v-2.133h5.333c0.882 0 1.6-0.718 1.6-1.6v-3.733h-6.4z">
            </path>
            <path fill="#f0e4f8" style="fill: var(--color12, #f0e4f8)"
                d="M17.029 12.8c0 0.295-0.239 0.533-0.533 0.533s-0.533-0.239-0.533-0.533c0-0.295 0.239-0.533 0.533-0.533s0.533 0.239 0.533 0.533z">
            </path>
            <path fill="#f0e4f8" style="fill: var(--color12, #f0e4f8)"
                d="M19.163 11.2c0 0.295-0.239 0.533-0.533 0.533s-0.533-0.239-0.533-0.533c0-0.295 0.239-0.533 0.533-0.533s0.533 0.239 0.533 0.533z">
            </path>
            <path fill="#fedde0" style="fill: var(--color11, #fedde0)"
                d="M9.563 5.867c0 0.295-0.239 0.533-0.533 0.533s-0.533-0.239-0.533-0.533c0-0.295 0.239-0.533 0.533-0.533s0.533 0.239 0.533 0.533z">
            </path>
            <path fill="#f0e4f8" style="fill: var(--color12, #f0e4f8)"
                d="M12.763 12.8c0 0.295-0.239 0.533-0.533 0.533s-0.533-0.239-0.533-0.533c0-0.295 0.239-0.533 0.533-0.533s0.533 0.239 0.533 0.533z">
            </path>
            <path fill="#f0e4f8" style="fill: var(--color12, #f0e4f8)"
                d="M14.896 11.2c0 0.295-0.239 0.533-0.533 0.533s-0.533-0.239-0.533-0.533c0-0.295 0.239-0.533 0.533-0.533s0.533 0.239 0.533 0.533z">
            </path>
            <path fill="#f85766" style="fill: var(--color3, #f85766)" d="M17.029 0h3.733v5.333h-3.733v-5.333z"></path>
        </symbol>
        <symbol id="about-ice-cream-2" viewBox="0 0 32 32">
            <path fill="#d2edfc" style="fill: var(--color13, #d2edfc)"
                d="M21.304 19.787c-4.629 2.454-4.804 7.807-3.431 10.573-0.345 1.002-1.405 1.206-1.405 1.206s-2.070-0.204-2.415-1.206c1.373-2.765 0.72-8.241-2.99-10.388l10.242-0.184z">
            </path>
            <path fill="#d2edfc" style="fill: var(--color13, #d2edfc)"
                d="M22.424 32h-12.847v-0.82c0-0.451 0.369-0.82 0.82-0.82h11.207c0.451 0 0.82 0.369 0.82 0.82v0.82z">
            </path>
            <path fill="#fffefc" style="fill: var(--color14, #fffefc)"
                d="M21.304 19.787c-0.424 0.225-0.81 0.474-1.162 0.743-1.273 0.433-2.673 0.673-4.143 0.673-1.459 0-2.85-0.236-4.115-0.664-0.255-0.208-0.529-0.399-0.822-0.568l10.242-0.184z">
            </path>
            <path fill="#c1ee89" style="fill: var(--color15, #c1ee89)"
                d="M16.273 13.064c3.598 0 6.532-2.934 6.532-6.532s-2.934-6.532-6.532-6.532-6.532 2.934-6.532 6.532 2.934 6.532 6.532 6.532z">
            </path>
            <path fill="#dbffb0" style="fill: var(--color16, #dbffb0)"
                d="M10.894 4.869c0.376-1.117 1.080-2.518 2.591-3.23 0.949-0.447 1.006 0.561 0.404 0.796-0.643 0.25-1.919 1.782-2.118 2.657-0.21 0.927-1.173 0.654-0.878-0.222z">
            </path>
            <path fill="#744c29" style="fill: var(--color17, #744c29)"
                d="M12.563 19.185c3.598 0 6.532-2.934 6.532-6.532s-2.934-6.532-6.532-6.532-6.532 2.934-6.532 6.532 2.934 6.532 6.532 6.532z">
            </path>
            <path fill="#a67244" style="fill: var(--color18, #a67244)"
                d="M7.183 10.99c0.376-1.117 1.080-2.518 2.592-3.23 0.949-0.447 1.006 0.561 0.404 0.796-0.643 0.25-1.919 1.782-2.118 2.657-0.21 0.927-1.173 0.654-0.878-0.222z">
            </path>
            <path fill="#ffc273" style="fill: var(--color19, #ffc273)"
                d="M19.552 19.185c3.598 0 6.532-2.934 6.532-6.532s-2.934-6.532-6.532-6.532-6.532 2.934-6.532 6.532 2.934 6.532 6.532 6.532z">
            </path>
            <path fill="#ffd8a6" style="fill: var(--color20, #ffd8a6)"
                d="M14.173 10.99c0.376-1.117 1.080-2.518 2.591-3.23 0.949-0.447 1.006 0.561 0.404 0.796-0.643 0.25-1.919 1.782-2.118 2.657-0.21 0.927-1.173 0.654-0.878-0.222z">
            </path>
            <path fill="#d33b3a" style="fill: var(--color21, #d33b3a)"
                d="M25.013 16.31c-1.707 2.289-5.689 4.372-9.013 4.372-3.309 0-6.682-1.3-9.16-4.87 0.774-0.272 1.476-0.148 3.724 0.936 1.396 0.673 2.383 1.491 3.581 0.637 3.202-2.283 2.555 0.807 4.708 0.447 3.167-0.53 4.206-2.532 6.16-1.522z">
            </path>
            <path fill="#e6f5ff" style="fill: var(--color22, #e6f5ff)" opacity="0.5"
                d="M26.418 11.823c0 5.11-4.664 9.252-10.418 9.252s-10.418-4.142-10.418-9.252h20.836z"></path>
        </symbol>
        <symbol id="about-ice-cream-3" viewBox="0 0 32 32">
            <path fill="#1d1d1b" style="fill: var(--color23, #1d1d1b)"
                d="M30.197 10.904c0.093-0.285 0.549-0.161 0.456 0.129-1.807 5.534-3.469 11.152-5.498 16.613-0.021 0.062-0.067 0.098-0.119 0.109-0.026 0.093-0.093 0.176-0.212 0.192-4.452 0.559-8.853-0.595-12.435-2.92-1.983 2.236-4.747 6.736-8.076 6.963-2.268 0.15-3.101-1.574-2.951-3.37-0.399-3.111 4.090-6.373 6.357-7.905-2.563-3.36-3.929-7.626-3.313-12.265 0-0.005 0.005-0.005 0.005-0.010-0.078-0.052-0.109-0.181 0-0.228 3.536-1.631 7.362-2.77 11.038-4.064 4.002-1.413 8.004-2.847 12.047-4.136 0.114-0.036 0.192 0.016 0.233 0.093 0.057 0.047 0.088 0.124 0.052 0.212-0.295 0.663-1.041 1.020-1.413 1.677-0.637 1.113-1.149 3.671 1.020 3.298 0.083-0.010 0.155 0.021 0.207 0.078 0.114 0 0.181 0.155 0.067 0.212-0.015 0.010-0.031 0.021-0.047 0.031-0.016 0.021-0.036 0.041-0.067 0.057s-0.062 0.026-0.088 0.036c-0.689 0.44-1.118 1.098-1.098 1.967 0.010 0.461 0.145 1.046 0.512 1.362 0.58 0.507 0.994 0.114 1.486-0.14 0.067-0.036 0.124-0.021 0.171 0.010 0.021-0.016 0.031-0.036 0.052-0.057 0.088-0.073 0.223 0.021 0.166 0.129-0.285 0.497-0.259 1.082-0.005 1.584 0.264 0.528 1.113 1.253 1.444 0.368 0-0.005 0-0.005 0-0.005 0.005-0.005 0.005-0.010 0.010-0.021zM29.886 11.841c-0.414 0.093-0.823-0.104-1.118-0.399-0.471-0.471-0.766-1.268-0.595-1.926-0.834 0.554-1.833 0.031-2.159-1.020-0.29-0.942-0.047-2.040 0.663-2.671-0.766-0.119-1.367-0.911-1.444-1.75-0.073-0.828 0.269-1.641 0.689-2.335 0.186-0.305 0.388-0.6 0.647-0.849 0.062-0.062 0.135-0.114 0.207-0.171-3.567 1.268-7.155 2.459-10.722 3.707-2.278 0.797-4.551 1.688-6.839 2.506-0.357 2.537-0.497 5.208 0.766 7.543 0.922 1.708 2.516 3.489 3.976 4.784 3.344 2.966 7.828 3.836 12.156 4.064 1.206-3.847 2.516-7.662 3.774-11.483zM25.641 24.81c0.109-0.352 0.223-0.699 0.331-1.051-4.696-0.212-9.526-1.346-12.943-4.778-3.329-3.339-5.374-7.258-4.043-11.964-0.352 0.124-0.709 0.254-1.061 0.378-1.693 10.779 7.667 17.644 17.716 17.416zM25.501 25.281c-5.162 0.114-10.53-1.382-14.206-5.177-3.148-3.251-4.918-8.133-3.738-12.586-0.958 0.321-1.921 0.621-2.889 0.89 0.005 0.015 0.015 0.026 0.015 0.041-0.062 4.338 0.911 8.568 3.386 12.032 0.135-0.062 0.274 0.129 0.171 0.233 0.559 0.756 1.191 1.481 1.905 2.154 3.929 3.712 9.36 5.275 14.677 4.608 0.010 0 0.021 0.005 0.031 0.005 0.207-0.735 0.425-1.47 0.647-2.2zM12.010 24.774c-0.171-0.119-0.347-0.238-0.512-0.357 0 0 0 0.005-0.005 0.010-1.227 1.284-2.449 2.573-3.676 3.857-0.771 0.802-1.517 1.776-2.49 2.35-1.196 0.704-2.537 0.642-3.381-0.549-0.129-0.186-0.238-0.373-0.321-0.559 0.010 0.093 0.010 0.186 0.026 0.28 1.082 1.812 2.433 2.262 4.043 1.351 1.020-0.476 1.838-1.398 2.604-2.2 1.284-1.351 2.48-2.785 3.712-4.183zM7.728 27.658c1.123-1.18 2.252-2.361 3.381-3.541-1.191-0.916-2.262-1.967-3.189-3.137-2.169 1.714-6.14 4.416-6.088 7.31 0.047 2.366 2.754 2.47 4.157 1.186 0.616-0.564 1.165-1.211 1.739-1.817z">
            </path>
            <path fill="#e94b59" style="fill: var(--color24, #e94b59)"
                d="M28.768 11.443c0.295 0.295 0.704 0.492 1.118 0.399-1.258 3.821-2.568 7.636-3.774 11.483-4.328-0.228-8.811-1.098-12.156-4.064-1.46-1.294-3.055-3.075-3.976-4.784-1.263-2.335-1.123-5.006-0.766-7.543 2.288-0.818 4.561-1.708 6.839-2.506 3.567-1.248 7.155-2.438 10.722-3.707-0.073 0.057-0.145 0.109-0.207 0.171-0.259 0.248-0.461 0.544-0.647 0.849-0.419 0.694-0.761 1.507-0.689 2.335 0.078 0.839 0.678 1.631 1.444 1.75-0.709 0.632-0.953 1.729-0.663 2.671 0.326 1.051 1.325 1.574 2.159 1.020-0.171 0.657 0.124 1.455 0.596 1.926zM28.794 14.461c0.073-0.119-0.104-0.207-0.181-0.104-0.357 0.471-0.544 1.010-0.6 1.6-0.010 0.104 0.161 0.129 0.181 0.026 0.104-0.544 0.316-1.051 0.6-1.522zM28.271 13.98c0.026-0.124-0.145-0.171-0.186-0.052-0.114 0.316-0.186 0.642-0.269 0.968-0.031 0.124 0.155 0.171 0.192 0.052 0.093-0.321 0.202-0.642 0.264-0.968zM27.795 10.589c0.088-0.073-0.026-0.223-0.119-0.155-0.311 0.212-0.663 0.29-1.035 0.238-0.088-0.015-0.119 0.104-0.036 0.135 0.414 0.16 0.854 0.062 1.191-0.218zM27.334 10.169c0.104-0.083 0.021-0.233-0.104-0.181-0.331 0.145-0.694 0.124-0.947-0.155-0.057-0.062-0.171 0.021-0.119 0.093 0.254 0.363 0.792 0.533 1.17 0.243zM26.045 5.991c0.067-0.083-0.036-0.181-0.114-0.114-0.217 0.181-0.347 0.404-0.435 0.673-0.036 0.114 0.14 0.161 0.181 0.047 0.078-0.228 0.212-0.425 0.368-0.606zM24.129 20.71c0.093-0.083-0.041-0.207-0.129-0.129-0.285 0.233-0.544 0.487-0.802 0.746-0.067 0.073 0.031 0.166 0.104 0.104 0.29-0.228 0.564-0.461 0.828-0.72zM23.555 19.933c0.538-0.683 0.544-1.589 0.481-2.418-0.005-0.088-0.041-0.15-0.098-0.192-0.015-0.078-0.078-0.135-0.171-0.098-0.031 0.015-0.057 0.036-0.088 0.047-0.021 0.010-0.036 0.021-0.057 0.031-0.59 0.28-1.092 0.73-1.439 1.289-0.295 0.476-0.678 1.331-0.098 1.76 0.497 0.368 1.144-0.005 1.47-0.419zM23.912 2.875c0.119 0.010 0.145-0.192 0.026-0.217-0.337-0.078-0.647-0.016-0.932 0.186-0.119 0.088-0.010 0.285 0.119 0.202 0.238-0.15 0.507-0.202 0.787-0.171zM23.793 2.253c0.078-0.083-0.026-0.228-0.124-0.161-0.352 0.238-0.715 0.435-1.139 0.513-0.098 0.016-0.078 0.181 0.021 0.171 0.466-0.036 0.911-0.191 1.242-0.523zM23.529 20.508c0.015-0.062-0.067-0.098-0.104-0.041-0.145 0.233-0.29 0.445-0.528 0.595-0.098 0.062-0.010 0.212 0.088 0.15 0.264-0.161 0.481-0.388 0.544-0.704zM22.514 5.971c0.088-0.14 0.021-0.29-0.093-0.373-0.010-0.067-0.057-0.124-0.14-0.145-0.787-0.192-1.75-0.264-2.48 0.171-0.564 0.337-0.973 1.046-0.715 1.698 0.761 1.957 2.884-0.538 3.427-1.351zM22.167 15.383c0.073-0.088-0.047-0.212-0.124-0.129-0.135 0.15-0.259 0.3-0.388 0.456-0.078 0.088 0.052 0.217 0.129 0.124 0.129-0.15 0.259-0.3 0.383-0.45zM21.727 11.743c0.016-0.104-0.016-0.181-0.062-0.238 0.031-0.093-0.010-0.212-0.14-0.197-0.621 0.062-1.16 0.336-1.553 0.834-0.331 0.43-0.704 1.18-0.28 1.672 0.337 0.383 0.978 0.326 1.341 0.010 0.564-0.486 0.58-1.408 0.694-2.081zM21.68 8.704c0.083-0.109-0.093-0.238-0.181-0.14-0.155 0.161-0.321 0.285-0.528 0.357-0.15 0.052-0.088 0.285 0.062 0.238 0.269-0.088 0.482-0.228 0.647-0.456zM21.561 8.202c0.088-0.057 0.010-0.181-0.083-0.14-0.362 0.171-0.725 0.3-1.129 0.347-0.114 0.010-0.114 0.186 0 0.176 0.43-0.036 0.849-0.145 1.211-0.383zM18.719 13.653c0.036 0.14 0.233 0.078 0.212-0.057-0.052-0.378-0.052-0.756-0.010-1.134 0.010-0.145-0.238-0.181-0.259-0.036-0.062 0.419-0.041 0.818 0.057 1.227zM16.964 19.084c0.114 0.021 0.161-0.14 0.047-0.171-0.295-0.083-0.569-0.202-0.818-0.383-0.104-0.073-0.202 0.098-0.098 0.171 0.259 0.197 0.544 0.331 0.87 0.383zM16.358 19.317c0.098-0.016 0.052-0.161-0.041-0.145-0.29 0.041-0.564-0.073-0.73-0.311-0.047-0.067-0.155-0.010-0.114 0.062 0.192 0.311 0.523 0.461 0.885 0.393zM15.219 10.138c0.114-0.062 0.14-0.248-0.016-0.285-0.761-0.161-3.495-0.078-3.018 1.351 0.192 0.559 0.849 0.751 1.367 0.575 0.678-0.233 1.092-0.947 1.6-1.413 0.073-0.067 0.088-0.15 0.067-0.228zM12.098 10.117c0.15-0.041 0.088-0.248-0.057-0.223-0.502 0.083-0.797 0.559-0.725 1.046 0.021 0.124 0.228 0.098 0.223-0.031-0.026-0.362 0.212-0.694 0.559-0.792zM11.978 9.294c0.073-0.031 0.021-0.155-0.057-0.129-0.492 0.14-0.87 0.44-1.154 0.865-0.057 0.088 0.083 0.166 0.145 0.083 0.264-0.368 0.647-0.642 1.066-0.818z">
            </path>
            <path fill="#1d1d1b" style="fill: var(--color23, #1d1d1b)"
                d="M28.613 14.357c0.078-0.104 0.254-0.015 0.181 0.104-0.285 0.471-0.497 0.978-0.6 1.522-0.021 0.104-0.192 0.078-0.181-0.026 0.057-0.59 0.243-1.129 0.6-1.6z">
            </path>
            <path fill="#1d1d1b" style="fill: var(--color23, #1d1d1b)"
                d="M28.084 13.928c0.041-0.119 0.212-0.073 0.186 0.052-0.062 0.326-0.171 0.647-0.264 0.968-0.036 0.119-0.223 0.073-0.192-0.052 0.083-0.326 0.155-0.652 0.269-0.968z">
            </path>
            <path fill="#1d1d1b" style="fill: var(--color23, #1d1d1b)"
                d="M27.675 10.433c0.093-0.067 0.207 0.083 0.119 0.155-0.337 0.28-0.777 0.378-1.191 0.217-0.083-0.031-0.052-0.15 0.036-0.135 0.373 0.052 0.725-0.026 1.036-0.238z">
            </path>
            <path fill="#1d1d1b" style="fill: var(--color23, #1d1d1b)"
                d="M27.23 9.988c0.124-0.052 0.207 0.098 0.104 0.181-0.378 0.29-0.916 0.119-1.17-0.243-0.052-0.073 0.062-0.155 0.119-0.093 0.254 0.28 0.616 0.3 0.947 0.155z">
            </path>
            <path fill="#1d1d1b" style="fill: var(--color23, #1d1d1b)"
                d="M25.931 5.877c0.078-0.067 0.181 0.031 0.114 0.114-0.155 0.181-0.29 0.378-0.368 0.606-0.041 0.114-0.217 0.067-0.181-0.047 0.088-0.269 0.217-0.492 0.435-0.673z">
            </path>
            <path fill="#33aa6c" style="fill: var(--color25, #33aa6c)"
                d="M11.295 20.104c3.676 3.795 9.044 5.291 14.206 5.177-0.223 0.73-0.44 1.465-0.647 2.2-0.010 0-0.021-0.005-0.031-0.005-5.317 0.668-10.748-0.896-14.677-4.608-0.714-0.673-1.346-1.398-1.905-2.154 0.104-0.104-0.036-0.295-0.171-0.233-2.475-3.464-3.448-7.693-3.386-12.032 0-0.016-0.010-0.026-0.015-0.041 0.968-0.269 1.931-0.569 2.889-0.89-1.181 4.453 0.59 9.335 3.738 12.586zM24.75 26.016c0.114-0.016 0.119-0.166 0-0.181-0.109-0.010-0.212-0.016-0.321-0.016-0.135 0-0.135 0.212 0 0.212 0.109 0 0.212-0.005 0.321-0.015zM20.743 26.596c0.114 0 0.114-0.171 0-0.176-0.492-0.036-0.984-0.098-1.465-0.192-0.114-0.021-0.161 0.14-0.052 0.171 0.502 0.129 0.999 0.197 1.517 0.197zM19.962 26.917c0.088 0 0.114-0.14 0.026-0.155-0.44-0.062-0.88-0.062-1.315-0.073-0.098 0-0.098 0.145 0 0.15 0.43 0.041 0.859 0.088 1.289 0.078zM10.814 20.275c0.062 0.036 0.109-0.057 0.057-0.093-0.357-0.259-0.709-0.528-1.025-0.834-0.057-0.052-0.135 0.031-0.083 0.083 0.321 0.321 0.663 0.611 1.051 0.844zM10.451 20.85c0.052 0.083 0.176 0.010 0.129-0.078-0.135-0.243-0.321-0.44-0.549-0.601-0.073-0.052-0.14 0.067-0.073 0.119 0.207 0.155 0.362 0.342 0.492 0.559zM5.88 11.194c0.031-0.119-0.14-0.166-0.181-0.052-0.161 0.409-0.197 0.828-0.145 1.258 0.021 0.135 0.228 0.14 0.217 0-0.021-0.409 0.021-0.808 0.109-1.206zM5.253 12.789c0.010 0.093 0.161 0.098 0.15 0-0.041-0.435-0.083-0.875-0.15-1.31-0.010-0.057-0.109-0.041-0.104 0.015 0.016 0.435 0.062 0.865 0.104 1.294z">
            </path>
            <path fill="#1d1d1b" style="fill: var(--color23, #1d1d1b)"
                d="M24.75 25.835c0.119 0.015 0.114 0.166 0 0.181-0.109 0.010-0.212 0.015-0.321 0.015-0.135 0-0.135-0.212 0-0.212 0.109 0 0.212 0.005 0.321 0.016z">
            </path>
            <path fill="#1d1d1b" style="fill: var(--color23, #1d1d1b)"
                d="M24 20.58c0.088-0.078 0.223 0.047 0.129 0.129-0.264 0.259-0.538 0.492-0.828 0.72-0.073 0.062-0.171-0.031-0.104-0.104 0.259-0.259 0.518-0.512 0.802-0.746z">
            </path>
            <path fill="#1d1d1b" style="fill: var(--color23, #1d1d1b)"
                d="M24.036 17.515c0.062 0.828 0.057 1.734-0.481 2.418-0.326 0.414-0.973 0.787-1.47 0.419-0.58-0.43-0.197-1.284 0.098-1.76 0.347-0.559 0.849-1.009 1.439-1.289 0.021-0.010 0.036-0.021 0.057-0.031 0.031-0.010 0.057-0.031 0.088-0.047 0.093-0.036 0.155 0.021 0.171 0.098 0.057 0.041 0.093 0.103 0.098 0.191z">
            </path>
            <path fill="#1d1d1b" style="fill: var(--color23, #1d1d1b)"
                d="M23.938 2.657c0.119 0.026 0.093 0.228-0.026 0.217-0.28-0.031-0.549 0.021-0.787 0.171-0.129 0.083-0.238-0.114-0.119-0.202 0.285-0.202 0.595-0.264 0.932-0.186z">
            </path>
            <path fill="#1d1d1b" style="fill: var(--color23, #1d1d1b)"
                d="M23.668 2.093c0.098-0.067 0.202 0.078 0.124 0.161-0.331 0.331-0.777 0.487-1.242 0.523-0.098 0.010-0.119-0.155-0.021-0.171 0.424-0.078 0.787-0.274 1.139-0.513z">
            </path>
            <path fill="#1d1d1b" style="fill: var(--color23, #1d1d1b)"
                d="M23.425 20.466c0.036-0.057 0.119-0.021 0.104 0.041-0.062 0.316-0.28 0.544-0.544 0.704-0.098 0.062-0.186-0.088-0.088-0.15 0.238-0.15 0.383-0.362 0.528-0.595z">
            </path>
            <path fill="#1d1d1b" style="fill: var(--color23, #1d1d1b)"
                d="M22.421 5.598c0.114 0.083 0.181 0.233 0.093 0.373-0.544 0.813-2.666 3.308-3.427 1.351-0.259-0.652 0.15-1.362 0.715-1.698 0.73-0.435 1.693-0.362 2.48-0.171 0.083 0.021 0.129 0.078 0.14 0.145z">
            </path>
            <path fill="#1d1d1b" style="fill: var(--color23, #1d1d1b)"
                d="M22.488 23.842c0.093 0.010 0.098 0.155 0 0.15-0.383-0.016-0.751-0.083-1.123-0.181-0.093-0.026-0.052-0.161 0.041-0.14 0.357 0.078 0.72 0.13 1.082 0.171z">
            </path>
            <path fill="#1d1d1b" style="fill: var(--color23, #1d1d1b)"
                d="M22.043 15.253c0.078-0.083 0.197 0.041 0.124 0.129-0.124 0.15-0.254 0.3-0.383 0.45-0.078 0.093-0.207-0.036-0.129-0.124 0.13-0.155 0.254-0.305 0.388-0.456z">
            </path>
            <path fill="#1d1d1b" style="fill: var(--color23, #1d1d1b)"
                d="M21.862 24.241c0.088 0.015 0.067 0.166-0.021 0.155-0.45-0.052-0.87-0.197-1.258-0.424-0.083-0.052-0.010-0.171 0.073-0.129 0.383 0.191 0.782 0.321 1.206 0.399z">
            </path>
            <path fill="#1d1d1b" style="fill: var(--color23, #1d1d1b)"
                d="M21.665 11.505c0.047 0.057 0.078 0.135 0.062 0.238-0.114 0.673-0.129 1.595-0.694 2.081-0.362 0.316-1.004 0.373-1.341-0.010-0.424-0.492-0.052-1.243 0.28-1.672 0.393-0.497 0.932-0.771 1.553-0.834 0.129-0.016 0.171 0.103 0.14 0.197z">
            </path>
            <path fill="#1d1d1b" style="fill: var(--color23, #1d1d1b)"
                d="M21.499 8.564c0.088-0.098 0.264 0.031 0.181 0.14-0.166 0.228-0.378 0.368-0.647 0.456-0.15 0.047-0.212-0.186-0.062-0.238 0.207-0.072 0.373-0.197 0.528-0.357z">
            </path>
            <path fill="#1d1d1b" style="fill: var(--color23, #1d1d1b)"
                d="M21.478 8.062c0.093-0.041 0.171 0.083 0.083 0.14-0.362 0.238-0.782 0.347-1.211 0.383-0.114 0.010-0.114-0.166 0-0.176 0.404-0.047 0.766-0.176 1.129-0.347z">
            </path>
            <path fill="#1d1d1b" style="fill: var(--color23, #1d1d1b)"
                d="M20.743 26.42c0.114 0.005 0.114 0.176 0 0.176-0.518 0-1.015-0.067-1.517-0.197-0.109-0.031-0.062-0.192 0.052-0.171 0.481 0.093 0.973 0.155 1.465 0.192z">
            </path>
            <path fill="#1d1d1b" style="fill: var(--color23, #1d1d1b)"
                d="M19.988 26.762c0.088 0.015 0.062 0.155-0.026 0.155-0.43 0.010-0.859-0.036-1.289-0.078-0.098-0.005-0.098-0.15 0-0.15 0.435 0.010 0.875 0.010 1.315 0.072z">
            </path>
            <path fill="#1d1d1b" style="fill: var(--color23, #1d1d1b)"
                d="M18.931 13.596c0.021 0.135-0.176 0.197-0.212 0.057-0.098-0.409-0.119-0.808-0.057-1.227 0.021-0.145 0.269-0.109 0.259 0.036-0.041 0.378-0.041 0.756 0.010 1.134z">
            </path>
            <path fill="#1d1d1b" style="fill: var(--color23, #1d1d1b)"
                d="M17.011 18.913c0.114 0.031 0.067 0.192-0.047 0.171-0.326-0.052-0.611-0.186-0.87-0.383-0.104-0.073-0.005-0.243 0.098-0.171 0.248 0.181 0.523 0.3 0.818 0.383z">
            </path>
            <path fill="#1d1d1b" style="fill: var(--color23, #1d1d1b)"
                d="M16.317 19.172c0.093-0.016 0.14 0.129 0.041 0.145-0.362 0.067-0.694-0.083-0.885-0.393-0.041-0.073 0.067-0.129 0.114-0.062 0.166 0.238 0.44 0.352 0.73 0.311z">
            </path>
            <path fill="#1d1d1b" style="fill: var(--color23, #1d1d1b)"
                d="M15.204 9.853c0.155 0.036 0.129 0.223 0.016 0.285 0.021 0.078 0.005 0.161-0.067 0.228-0.507 0.466-0.922 1.18-1.6 1.413-0.518 0.176-1.175-0.016-1.367-0.575-0.476-1.429 2.257-1.512 3.018-1.351z">
            </path>
            <path fill="#1d1d1b" style="fill: var(--color23, #1d1d1b)"
                d="M12.041 9.895c0.145-0.026 0.207 0.181 0.057 0.223-0.347 0.098-0.585 0.43-0.559 0.792 0.005 0.129-0.202 0.155-0.223 0.031-0.073-0.487 0.223-0.963 0.725-1.046z">
            </path>
            <path fill="#1d1d1b" style="fill: var(--color23, #1d1d1b)"
                d="M11.921 9.165c0.078-0.026 0.129 0.098 0.057 0.129-0.419 0.176-0.802 0.45-1.066 0.818-0.062 0.083-0.202 0.005-0.145-0.083 0.285-0.425 0.663-0.725 1.154-0.865z">
            </path>
            <path fill="#fde9cc" style="fill: var(--color26, #fde9cc)"
                d="M11.497 24.417c0.166 0.119 0.342 0.238 0.512 0.357-1.232 1.398-2.428 2.832-3.712 4.183-0.766 0.802-1.584 1.724-2.604 2.2-1.61 0.911-2.961 0.461-4.043-1.351-0.016-0.093-0.016-0.186-0.026-0.28 0.083 0.186 0.192 0.373 0.321 0.559 0.844 1.191 2.185 1.253 3.381 0.549 0.973-0.575 1.719-1.548 2.49-2.35 1.227-1.284 2.449-2.573 3.676-3.857 0.005-0.005 0.005-0.011 0.005-0.011zM6.315 30.433c0.047-0.073-0.073-0.171-0.124-0.098-0.217 0.28-0.497 0.502-0.818 0.647-0.067 0.031-0.021 0.14 0.047 0.119 0.378-0.129 0.668-0.342 0.896-0.668z">
            </path>
            <path fill="#fde9cc" style="fill: var(--color26, #fde9cc)"
                d="M11.109 24.116c-1.129 1.18-2.257 2.361-3.381 3.541-0.575 0.606-1.123 1.253-1.739 1.817-1.403 1.284-4.111 1.18-4.157-1.186-0.052-2.894 3.919-5.596 6.088-7.31 0.927 1.17 1.998 2.221 3.189 3.137zM9.68 25.219c0.067-0.078-0.021-0.217-0.114-0.15-0.316 0.228-0.59 0.512-0.865 0.792-0.088 0.088 0.041 0.212 0.14 0.135 0.29-0.243 0.59-0.487 0.839-0.777zM9.374 24.748c0.067-0.098-0.088-0.217-0.161-0.124-0.238 0.274-0.445 0.569-0.663 0.865-0.062 0.088 0.083 0.202 0.155 0.114 0.228-0.28 0.461-0.559 0.668-0.854zM6.687 24.494c0.073-0.073-0.036-0.181-0.109-0.114-0.243 0.233-0.476 0.476-0.709 0.715-0.067 0.073 0.036 0.171 0.104 0.109 0.243-0.233 0.486-0.466 0.714-0.709zM2.986 27.378c0.047-0.114-0.145-0.192-0.197-0.083-0.264 0.549-0.305 1.154-0.057 1.719 0.036 0.088 0.171 0.026 0.15-0.062-0.124-0.538-0.104-1.056 0.104-1.574zM2.603 29.371c0.073 0.062 0.192-0.021 0.14-0.109-0.192-0.305-0.295-0.642-0.259-1.004 0.016-0.124-0.192-0.15-0.217-0.031-0.078 0.424 0.021 0.839 0.337 1.144z">
            </path>
            <path fill="#1d1d1b" style="fill: var(--color23, #1d1d1b)"
                d="M10.871 20.182c0.052 0.036 0.005 0.129-0.057 0.093-0.388-0.233-0.73-0.523-1.051-0.844-0.052-0.052 0.026-0.135 0.083-0.083 0.316 0.305 0.668 0.575 1.025 0.834z">
            </path>
            <path fill="#1d1d1b" style="fill: var(--color23, #1d1d1b)"
                d="M10.581 20.772c0.047 0.088-0.078 0.161-0.129 0.078-0.129-0.217-0.285-0.404-0.492-0.559-0.067-0.052 0-0.171 0.073-0.119 0.228 0.16 0.414 0.357 0.549 0.6z">
            </path>
            <path fill="#1d1d1b" style="fill: var(--color23, #1d1d1b)"
                d="M10.099 16.356c0.067 0.098-0.093 0.223-0.171 0.129-0.207-0.269-0.352-0.554-0.45-0.875-0.041-0.145 0.176-0.202 0.223-0.062 0.093 0.285 0.228 0.554 0.399 0.807z">
            </path>
            <path fill="#1d1d1b" style="fill: var(--color23, #1d1d1b)"
                d="M9.566 25.069c0.093-0.067 0.181 0.073 0.114 0.15-0.248 0.29-0.549 0.533-0.839 0.777-0.098 0.078-0.228-0.047-0.14-0.135 0.274-0.279 0.549-0.564 0.865-0.792z">
            </path>
            <path fill="#1d1d1b" style="fill: var(--color23, #1d1d1b)"
                d="M9.214 24.624c0.073-0.093 0.228 0.026 0.161 0.124-0.207 0.295-0.44 0.575-0.668 0.854-0.073 0.088-0.217-0.026-0.155-0.114 0.217-0.295 0.425-0.59 0.663-0.865z">
            </path>
            <path fill="#1d1d1b" style="fill: var(--color23, #1d1d1b)"
                d="M6.579 24.38c0.073-0.067 0.181 0.041 0.109 0.114-0.228 0.243-0.471 0.476-0.715 0.709-0.067 0.062-0.171-0.036-0.104-0.109 0.233-0.238 0.466-0.481 0.709-0.714z">
            </path>
            <path fill="#1d1d1b" style="fill: var(--color23, #1d1d1b)"
                d="M6.19 30.334c0.052-0.073 0.171 0.026 0.124 0.098-0.228 0.326-0.518 0.538-0.896 0.668-0.067 0.021-0.114-0.088-0.047-0.119 0.321-0.145 0.601-0.368 0.818-0.647z">
            </path>
            <path fill="#1d1d1b" style="fill: var(--color23, #1d1d1b)"
                d="M5.699 11.143c0.041-0.114 0.212-0.067 0.181 0.052-0.088 0.399-0.129 0.797-0.109 1.206 0.010 0.14-0.197 0.135-0.217 0-0.052-0.43-0.016-0.849 0.145-1.258z">
            </path>
            <path fill="#1d1d1b" style="fill: var(--color23, #1d1d1b)"
                d="M5.404 12.789c0.010 0.098-0.14 0.093-0.15 0-0.041-0.43-0.088-0.859-0.104-1.294-0.005-0.057 0.093-0.073 0.104-0.015 0.067 0.435 0.109 0.875 0.15 1.31z">
            </path>
            <path fill="#1d1d1b" style="fill: var(--color23, #1d1d1b)"
                d="M2.789 27.295c0.052-0.109 0.243-0.031 0.197 0.083-0.207 0.518-0.228 1.035-0.104 1.574 0.021 0.088-0.114 0.15-0.15 0.062-0.248-0.564-0.207-1.17 0.057-1.719z">
            </path>
            <path fill="#1d1d1b" style="fill: var(--color23, #1d1d1b)"
                d="M2.742 29.262c0.052 0.088-0.067 0.171-0.14 0.109-0.316-0.305-0.414-0.72-0.337-1.144 0.026-0.119 0.233-0.093 0.217 0.031-0.036 0.362 0.067 0.699 0.259 1.004z">
            </path>
        </symbol>
        <symbol id="about-ice-cream-4" viewBox="0 0 32 32">
            <path fill="#1d1d1b" style="fill: var(--color23, #1d1d1b)"
                d="M24.482 7.086c0.71 0.504 0.887 1.527 0.35 2.256-0.57 0.766-1.504 0.724-2.386 0.747 1.191 1.541 2.76 4.31 0.556 5.772-0.574 0.378-1.172 0.369-1.775 0.248 0 0.019 0 0.037-0.005 0.056-1.209 3.885-2.47 7.757-3.713 11.633-0.336 1.041-0.565 4.030-2.097 4.068-0.019 0.089-0.098 0.154-0.21 0.131-1.733-0.411-2.027-3.755-2.47-5.142-1.055-3.292-2.195-6.575-3.073-9.919-1.294-0.205-2.405-0.85-2.723-2.335-0.472-2.218 1.13-4.819 3.25-5.455-0.257-0.649-0.14-1.415 0.215-2.204 0.495-1.107 1.518-2.041 2.755-1.826 0.019-0.037 0.037-0.075 0.061-0.117 0.5-0.504 0.742-1.149 0.724-1.929-0.121-0.369-0.299-0.7-0.532-1.004-0.098-0.168-0.266-0.336-0.304-0.537-0.075-0.374 0.075-0.724 0.346-0.976 1.826-1.705 6.155 0.873 5.935 3.157l-0.005 0.005c0.532 0.023 1.009 0.308 1.139 0.943 0.346 0.037 0.677 0.089 0.841 0.383 0.201-0.957 1.238-1.896 2.242-1.653 0.047 0.009 0.075 0.042 0.093 0.079 0.005 0 0.005 0 0.014 0 0.453 0.135 0.808 0.673 0.476 1.111-0.182 0.238-0.467 0.252-0.747 0.266-0.243 0.009-0.444 0.033-0.64 0.187-0.047 0.037-0.392 0.495-0.322 0.509 0.047 0.009 0.070 0.056 0.065 0.098 0.817-0.065 1.62 0.607 1.929 1.322 0.014 0.042 0.018 0.084 0.009 0.126zM23.973 9.477c0.985-0.504 0.817-1.62 0.089-2.242-0.061-0.047-0.070-0.112-0.051-0.163-0.43-0.252-1.069 0.075-1.555-0.047 0.037 0.252-0.014 0.523-0.163 0.729-0.257 0.36-0.747 0.49-1.154 0.336-0.098-0.037-0.187-0.163-0.107-0.266 0.177-0.243 0.070-0.551 0.009-0.855-0.551 0.5-1.597 0.448-2.176 0.121-0.159-0.089-0.098-0.36 0.093-0.35 0.458 0.033 0.607-0.537 0.934-0.747 0.061-0.037 0.121-0.065 0.187-0.089-0.149-0.103-0.285-0.233-0.383-0.36-0.168-0.21-0.276-0.458-0.318-0.714-0.005 0.023-0.014 0.051-0.033 0.079-0.079 0.121-0.177 0.21-0.29 0.304-0.14 0.121-0.388-0.037-0.271-0.205 0.079-0.117 0.159-0.233 0.271-0.322 0.103-0.084 0.261-0.033 0.308 0.065-0.014-0.084-0.019-0.168-0.014-0.257 0-0.135 0.168-0.21 0.271-0.112 0.154 0.159 0.383 0.21 0.63 0.243-0.635-0.869-1.798-0.607-2.284 0.355-0.322 0.626-0.28 1.317-0.192 1.999 0.051 0.374 0.154 0.761 0.089 1.139-0.042 0.238-0.154 0.383-0.229 0.584 0.005 0.042-0.005 0.075-0.028 0.107 0.042 0.037 0.089 0.075 0.126 0.121 0.154 0.201 0.233 0.458 0.187 0.714-0.009 0.033-0.023 0.070-0.037 0.103 0.248-0.177 0.574-0.252 0.859-0.098 0.192 0.103 0.416 0.416 0.439 0.686 0.369-0.21 0.855-0.187 1.224 0.061 0.047 0.028 0.089 0.065 0.131 0.103 0.276-0.472 0.771-0.64 1.336-0.71 0.691-0.084 1.462 0.014 2.102-0.313zM23.693 6.605c0.033 0 0.070 0.009 0.103 0.009-0.103-0.117-0.22-0.229-0.355-0.322-0.308-0.205-0.63-0.248-0.971-0.346-0.098-0.023-0.135-0.149-0.098-0.229-0.336-0.056-0.084-0.663 0.065-0.841 0.187-0.224 0.448-0.374 0.742-0.411 0.149-0.023 0.327 0.014 0.472-0.023 0.481-0.135 0.28-0.542-0.047-0.724-0.009-0.005-0.014-0.014-0.019-0.019-0.453 0.065-0.845 0.098-1.233 0.383-0.411 0.308-0.663 0.738-0.78 1.233-0.023 0.107-0.159 0.112-0.22 0.042-0.047 0.028-0.107 0.028-0.149-0.023-0.341-0.411-1.018-0.215-1.476-0.402 0.056 0.168 0.14 0.322 0.261 0.462 0.205 0.233 0.472 0.294 0.724 0.448 0.117 0.075 0.056 0.233-0.065 0.243-0.056 0.005-0.107 0.005-0.159-0.005-0.14 0.056-0.285 0.107-0.406 0.201-0.168 0.131-0.261 0.322-0.402 0.481-0.056 0.070-0.121 0.126-0.187 0.177 0.229 0.056 0.462 0.065 0.701 0.009 0.374-0.084 0.593-0.313 0.906-0.5 0.126-0.079 0.243 0.070 0.192 0.187-0.014 0.023-0.033 0.042-0.042 0.061 0.098 0.36 0.29 0.729 0.192 1.083 0.201 0.014 0.397-0.051 0.528-0.215 0.215-0.261 0.121-0.584-0.037-0.836-0.056-0.089-0.014-0.177 0.056-0.22 0.042-0.070 0.149-0.093 0.215-0.005 0.35 0.477 1.023 0.094 1.49 0.098zM23.511 14.189c0.537-1.392-0.803-2.979-1.56-3.993-0.019-0.023-0.028-0.047-0.033-0.075-0.481 0.051-0.915 0.182-1.219 0.56 0.304 0.406 0.406 0.995 0.196 1.443-0.093 0.191-0.411 0.098-0.402-0.112 0.023-0.425 0.089-0.841-0.248-1.181-0.322-0.327-0.859-0.322-1.186-0.014-0.093 0.089-0.248 0.005-0.243-0.103-0.042-0.028-0.075-0.079-0.084-0.14-0.014-0.117 0.051-0.22 0.019-0.341-0.033-0.103-0.107-0.205-0.201-0.257-0.243-0.126-0.509 0.014-0.672 0.205 0.047 0.065 0.079 0.131 0.098 0.201 0.047 0.159-0.14 0.238-0.252 0.149-0.117-0.093-0.177-0.233-0.266-0.35-0.103-0.135-0.224-0.261-0.341-0.388-0.084-0.093 0.028-0.257 0.14-0.182 0.051 0.033 0.103 0.070 0.159 0.112 0.047-0.065 0.093-0.131 0.103-0.224 0.014-0.149-0.056-0.29-0.154-0.397-0.215-0.233-0.546-0.299-0.836-0.182-0.042 0.014-0.079 0.009-0.112-0.009-0.014 0-0.028 0.005-0.047 0.005-0.121-0.014-0.177-0.117-0.131-0.229 0.061-0.145 0.243-0.224 0.163-0.411-0.075-0.187-0.332-0.168-0.472-0.075-0.093 0.065-0.22-0.061-0.154-0.154 0.215-0.29 0.677-0.318 0.901-0.005 0.079 0.107 0.103 0.304 0.079 0.476 0.173-0.019 0.355 0.005 0.523 0.075 0-0.019 0.005-0.037 0-0.061-0.014-0.266 0.205-0.63 0.192-0.957-0.014-0.285-0.098-0.574-0.126-0.859-0.075-0.831-0.009-1.718 0.56-2.377 0.308-0.36 0.799-0.584 1.27-0.621-0.252-1.177-1.275-2.195-2.321-2.737-0.486-0.248-1.149-0.486-1.709-0.467-0.7-0.070-1.219 0.304-1.555 1.116 0.093 0.131 0.182 0.261 0.271 0.402 0.252 0.574 0.616 1.069 0.528 1.737-0.112 0.878-1.719 2.143-0.495 3.003 0.14 0.098 0.056 0.364-0.121 0.29-0.892-0.364-1.069-0.957-0.747-1.7-1.018 0.145-1.761 0.794-2.195 1.761-0.187 0.411-0.364 0.887-0.36 1.345 0.009 0.733 0.406 1.055 0.901 1.466 0.159 0.135-0.047 0.388-0.22 0.285-0.406-0.243-0.686-0.532-0.864-0.855-2.788 1.583-4.721 6.996 0.215 7.224 1.933 0.084 3.759-0.78 5.609-1.205 1.219-0.276 2.405-0.42 3.643-0.159 1.303 0.271 2.839 1.359 3.755-1.037zM20.816 16.052c0.005-0.014 0.014-0.019 0.019-0.033-0.294-0.075-0.588-0.159-0.878-0.224-2.452-0.565-4.563 0.374-6.902 0.929-0.906 0.215-2.027 0.36-3.068 0.257 0.873 2.349 1.597 4.759 2.349 7.15 0.411 1.303 0.822 2.606 1.233 3.904 0.304 0.967 0.626 3.208 1.723 3.615 1.079-0.392 1.667-3.605 1.924-4.404 0.369-1.149 0.733-2.298 1.102-3.446 0.827-2.583 1.649-5.17 2.498-7.747z">
            </path>
            <path fill="#ef67ac" style="fill: var(--color27, #ef67ac)"
                d="M24.062 7.235c0.729 0.621 0.897 1.737-0.089 2.242-0.64 0.327-1.41 0.229-2.101 0.313-0.565 0.070-1.060 0.238-1.336 0.71-0.042-0.037-0.084-0.075-0.131-0.103-0.369-0.248-0.855-0.271-1.224-0.061-0.023-0.271-0.248-0.584-0.439-0.686-0.285-0.154-0.612-0.079-0.859 0.098 0.014-0.033 0.028-0.070 0.037-0.103 0.047-0.257-0.033-0.514-0.187-0.714-0.037-0.047-0.084-0.084-0.126-0.121 0.023-0.033 0.033-0.065 0.028-0.107 0.075-0.201 0.187-0.346 0.229-0.584 0.065-0.378-0.037-0.766-0.089-1.139-0.089-0.682-0.131-1.373 0.192-1.999 0.486-0.962 1.649-1.224 2.284-0.355-0.248-0.033-0.476-0.084-0.63-0.243-0.103-0.098-0.271-0.023-0.271 0.112-0.005 0.089 0 0.173 0.014 0.257-0.047-0.098-0.205-0.149-0.308-0.065-0.112 0.089-0.192 0.205-0.271 0.322-0.117 0.168 0.131 0.327 0.271 0.205 0.112-0.093 0.21-0.182 0.29-0.304 0.019-0.028 0.028-0.056 0.033-0.079 0.042 0.257 0.149 0.504 0.318 0.714 0.098 0.126 0.233 0.257 0.383 0.36-0.065 0.023-0.126 0.051-0.187 0.089-0.327 0.21-0.476 0.78-0.934 0.747-0.192-0.009-0.252 0.261-0.093 0.35 0.579 0.327 1.625 0.378 2.176-0.121 0.061 0.304 0.168 0.612-0.009 0.855-0.079 0.103 0.009 0.229 0.107 0.266 0.406 0.154 0.897 0.023 1.154-0.336 0.149-0.205 0.201-0.476 0.163-0.729 0.486 0.121 1.125-0.205 1.555 0.047-0.019 0.051-0.010 0.116 0.051 0.163zM23.987 8.277c0.098-0.205 0.028-0.416-0.070-0.616-0.075-0.154-0.299-0.042-0.261 0.112 0.037 0.159 0.005 0.313 0.042 0.467 0.028 0.126 0.229 0.163 0.289 0.037zM23.693 8.851c0.168-0.075 0.037-0.299-0.117-0.276-0.173 0.023-0.355 0.042-0.509 0.126-0.149 0.079-0.089 0.336 0.089 0.322 0.187-0.009 0.36-0.103 0.537-0.173zM23.347 7.968c0.009-0.135-0.196-0.187-0.257-0.070-0.075 0.154-0.22 0.196-0.308 0.336-0.042 0.075-0.005 0.21 0.093 0.224 0.285 0.042 0.453-0.238 0.472-0.49zM21.227 9.514c0.112-0.005 0.14-0.168 0.028-0.196-0.411-0.107-0.831 0.121-1.055 0.462-0.056 0.089 0.079 0.191 0.145 0.112 0.238-0.271 0.532-0.36 0.883-0.378zM19.63 8.127c0.056-0.126-0.037-0.28-0.182-0.243-0.21 0.056-0.36 0.294-0.439 0.486-0.061 0.149 0.145 0.22 0.238 0.14 0.131-0.103 0.318-0.233 0.383-0.383zM18.593 8.828c0.056-0.238 0.065-0.57-0.084-0.771-0.089-0.126-0.341-0.103-0.327 0.084 0.019 0.22 0.093 0.42 0.107 0.645 0.009 0.168 0.261 0.22 0.304 0.042z">
            </path>
            <path fill="#1d1d1b" style="fill: var(--color23, #1d1d1b)"
                d="M23.917 7.66c0.098 0.201 0.168 0.411 0.070 0.616-0.061 0.126-0.261 0.089-0.29-0.037-0.037-0.154-0.005-0.308-0.042-0.467-0.037-0.154 0.187-0.266 0.262-0.112z">
            </path>
            <path fill="#33aa6c" style="fill: var(--color25, #33aa6c)"
                d="M23.796 6.614c-0.033 0-0.070-0.009-0.103-0.009-0.467-0.005-1.139 0.378-1.49-0.098-0.065-0.089-0.173-0.065-0.215 0.005-0.070 0.042-0.112 0.131-0.056 0.22 0.159 0.252 0.252 0.574 0.037 0.836-0.131 0.163-0.327 0.229-0.528 0.215 0.098-0.355-0.093-0.724-0.192-1.083 0.009-0.019 0.028-0.037 0.042-0.061 0.051-0.117-0.065-0.266-0.192-0.187-0.313 0.187-0.532 0.416-0.906 0.5-0.238 0.056-0.472 0.047-0.701-0.009 0.065-0.051 0.131-0.107 0.187-0.177 0.14-0.159 0.233-0.35 0.402-0.481 0.121-0.093 0.266-0.145 0.406-0.201 0.051 0.009 0.103 0.009 0.159 0.005 0.121-0.009 0.182-0.168 0.065-0.243-0.252-0.154-0.518-0.215-0.724-0.448-0.121-0.14-0.205-0.294-0.261-0.462 0.458 0.187 1.135-0.009 1.476 0.402 0.042 0.051 0.103 0.051 0.149 0.023 0.061 0.070 0.196 0.065 0.22-0.042 0.117-0.495 0.369-0.925 0.78-1.233 0.388-0.285 0.78-0.318 1.233-0.383 0.005 0.005 0.009 0.014 0.019 0.019 0.327 0.182 0.528 0.588 0.047 0.724-0.145 0.037-0.322 0-0.472 0.023-0.294 0.037-0.556 0.187-0.742 0.411-0.149 0.177-0.402 0.785-0.065 0.841-0.037 0.079 0 0.205 0.098 0.229 0.341 0.098 0.663 0.14 0.971 0.346 0.135 0.093 0.252 0.205 0.355 0.322z">
            </path>
            <path fill="#1d1d1b" style="fill: var(--color23, #1d1d1b)"
                d="M23.576 8.575c0.154-0.023 0.285 0.201 0.117 0.276-0.177 0.070-0.35 0.163-0.537 0.173-0.177 0.014-0.238-0.243-0.089-0.322 0.154-0.084 0.336-0.103 0.509-0.126z">
            </path>
            <path fill="#f8f8cc" style="fill: var(--color28, #f8f8cc)"
                d="M21.951 10.196c0.757 1.013 2.097 2.601 1.56 3.993-0.915 2.396-2.452 1.308-3.755 1.037-1.238-0.261-2.424-0.117-3.643 0.159-1.849 0.425-3.675 1.289-5.609 1.205-4.936-0.229-3.003-5.641-0.215-7.224 0.177 0.322 0.458 0.612 0.864 0.855 0.173 0.103 0.378-0.149 0.22-0.285-0.495-0.411-0.892-0.733-0.901-1.466-0.005-0.458 0.173-0.934 0.36-1.345 0.434-0.967 1.177-1.616 2.195-1.761-0.322 0.742-0.145 1.336 0.747 1.7 0.177 0.075 0.261-0.191 0.121-0.29-1.224-0.859 0.383-2.125 0.495-3.003 0.089-0.668-0.276-1.163-0.528-1.737-0.089-0.14-0.177-0.271-0.271-0.402 0.336-0.813 0.855-1.186 1.555-1.116 0.56-0.019 1.224 0.22 1.709 0.467 1.046 0.542 2.069 1.56 2.321 2.737-0.472 0.037-0.962 0.261-1.27 0.621-0.57 0.658-0.635 1.546-0.56 2.377 0.028 0.285 0.112 0.574 0.126 0.859 0.014 0.327-0.205 0.691-0.192 0.957 0.005 0.023 0 0.042 0 0.061-0.168-0.070-0.35-0.093-0.523-0.075 0.023-0.173 0-0.369-0.079-0.476-0.224-0.313-0.686-0.285-0.901 0.005-0.065 0.093 0.061 0.22 0.154 0.154 0.14-0.093 0.397-0.112 0.472 0.075 0.079 0.187-0.103 0.266-0.163 0.411-0.047 0.112 0.009 0.215 0.131 0.229 0.019 0 0.033-0.005 0.047-0.005 0.033 0.019 0.070 0.023 0.112 0.009 0.29-0.117 0.621-0.051 0.836 0.182 0.098 0.107 0.168 0.248 0.154 0.397-0.009 0.093-0.056 0.159-0.103 0.224-0.056-0.042-0.107-0.079-0.159-0.112-0.112-0.075-0.224 0.089-0.14 0.182 0.117 0.126 0.238 0.252 0.341 0.388 0.089 0.117 0.149 0.257 0.266 0.35 0.112 0.089 0.299 0.009 0.252-0.149-0.019-0.070-0.051-0.135-0.098-0.201 0.163-0.191 0.43-0.332 0.672-0.205 0.093 0.051 0.168 0.154 0.201 0.257 0.033 0.121-0.033 0.224-0.019 0.341 0.009 0.061 0.042 0.112 0.084 0.14-0.005 0.107 0.149 0.191 0.243 0.103 0.327-0.308 0.864-0.313 1.186 0.014 0.336 0.341 0.271 0.757 0.248 1.181-0.009 0.21 0.308 0.304 0.402 0.112 0.21-0.448 0.107-1.037-0.196-1.443 0.304-0.378 0.738-0.509 1.219-0.56 0.005 0.028 0.014 0.051 0.033 0.075zM22.759 12.489c0.037 0.098 0.215 0.098 0.205-0.028-0.056-0.588-0.532-1.055-1.065-1.261-0.070-0.028-0.112 0.079-0.051 0.117 0.476 0.261 0.719 0.682 0.911 1.172zM22.343 13.044c0.019 0.14 0.233 0.149 0.224 0-0.014-0.448-0.173-0.836-0.453-1.181-0.084-0.098-0.252 0.033-0.182 0.135 0.219 0.313 0.36 0.673 0.411 1.046zM16.973 1.477c0.065 0.051 0.173-0.014 0.121-0.093-0.276-0.42-0.757-0.63-1.238-0.691-0.093-0.014-0.117 0.149-0.023 0.168 0.448 0.089 0.798 0.327 1.139 0.616zM16.94 2.094c0.098 0.084 0.238-0.051 0.145-0.145-0.313-0.327-0.691-0.616-1.111-0.803-0.112-0.051-0.205 0.098-0.098 0.168 0.369 0.243 0.729 0.49 1.065 0.78zM16.095 5.339c0.019 0.135 0.229 0.145 0.22 0-0.014-0.215-0.028-0.43-0.047-0.644-0.009-0.154-0.261-0.154-0.243 0 0.019 0.215 0.047 0.43 0.070 0.644zM16.221 13.049c0.084-0.023 0.047-0.145-0.033-0.126-0.369 0.079-0.738 0.028-1.060-0.168-0.070-0.042-0.135 0.065-0.065 0.112 0.35 0.229 0.757 0.303 1.158 0.182zM15.726 12.064c0.084 0.070 0.201-0.037 0.121-0.121-0.182-0.187-0.374-0.364-0.565-0.542-0.103-0.093-0.248 0.056-0.149 0.149 0.191 0.177 0.388 0.35 0.593 0.514zM11.822 8.669c0.075 0.065 0.215-0.019 0.145-0.112-0.103-0.14-0.182-0.271-0.22-0.444-0.028-0.135-0.238-0.075-0.205 0.056 0.042 0.201 0.126 0.369 0.28 0.5zM11.308 9.183c0.061 0.065 0.173-0.019 0.126-0.093-0.164-0.248-0.266-0.532-0.271-0.831-0.005-0.131-0.205-0.131-0.205 0 0 0.355 0.103 0.668 0.35 0.925zM10.893 15.478c0.112 0.009 0.135-0.177 0.028-0.196-0.378-0.065-0.743-0.168-1.088-0.336-0.117-0.056-0.22 0.117-0.103 0.177 0.369 0.191 0.752 0.313 1.163 0.355zM10.234 15.856c0.089-0.047 0.028-0.191-0.070-0.164-0.397 0.126-0.817 0.084-1.135-0.201-0.103-0.089-0.257 0.061-0.154 0.154 0.369 0.336 0.906 0.448 1.359 0.21z">
            </path>
            <path fill="#1d1d1b" style="fill: var(--color23, #1d1d1b)"
                d="M23.091 7.898c0.061-0.117 0.266-0.065 0.257 0.070-0.019 0.252-0.187 0.532-0.472 0.49-0.098-0.014-0.135-0.149-0.093-0.224 0.089-0.14 0.234-0.182 0.308-0.336z">
            </path>
            <path fill="#1d1d1b" style="fill: var(--color23, #1d1d1b)"
                d="M22.965 12.461c0.009 0.126-0.168 0.126-0.205 0.028-0.192-0.49-0.434-0.911-0.911-1.172-0.061-0.037-0.019-0.145 0.051-0.117 0.532 0.206 1.009 0.673 1.065 1.261z">
            </path>
            <path fill="#1d1d1b" style="fill: var(--color23, #1d1d1b)"
                d="M22.568 13.044c0.009 0.149-0.205 0.14-0.224 0-0.051-0.374-0.192-0.733-0.411-1.046-0.070-0.103 0.098-0.233 0.182-0.135 0.28 0.346 0.439 0.733 0.453 1.181z">
            </path>
            <path fill="#1d1d1b" style="fill: var(--color23, #1d1d1b)"
                d="M21.255 9.318c0.112 0.028 0.084 0.191-0.028 0.196-0.35 0.019-0.645 0.107-0.883 0.378-0.065 0.079-0.201-0.023-0.145-0.112 0.224-0.341 0.644-0.57 1.055-0.462z">
            </path>
            <path fill="#fde9cc" style="fill: var(--color26, #fde9cc)"
                d="M20.835 16.019c-0.005 0.014-0.014 0.019-0.019 0.033-0.85 2.578-1.672 5.165-2.498 7.747-0.369 1.149-0.733 2.298-1.102 3.446-0.257 0.799-0.845 4.011-1.924 4.404-1.097-0.406-1.42-2.648-1.723-3.615-0.411-1.298-0.822-2.601-1.233-3.904-0.752-2.391-1.476-4.801-2.349-7.15 1.041 0.103 2.162-0.042 3.068-0.257 2.34-0.556 4.45-1.494 6.902-0.929 0.29 0.065 0.584 0.149 0.878 0.224zM19.962 17.831c0.005-0.126-0.173-0.117-0.192 0-0.056 0.444-0.145 0.878-0.229 1.312-0.023 0.135 0.163 0.187 0.205 0.056 0.145-0.439 0.206-0.906 0.215-1.368zM19.154 19.928c0.205-0.402 0.243-0.869 0.107-1.303-0.023-0.070-0.145-0.061-0.135 0.019 0.047 0.425-0.014 0.803-0.168 1.2-0.042 0.112 0.14 0.191 0.196 0.084zM16.805 24.252c0.014-0.145-0.233-0.182-0.257-0.033-0.056 0.318-0.093 0.64-0.126 0.967-0.014 0.135 0.224 0.173 0.248 0.033 0.051-0.322 0.098-0.644 0.135-0.967zM16.104 20.946c0.042-0.215 0.079-0.439 0.070-0.663-0.005-0.098-0.154-0.126-0.177-0.023-0.051 0.215-0.061 0.444-0.061 0.663-0 0.098 0.149 0.126 0.168 0.023zM15.651 18.966c0.019-0.14-0.168-0.196-0.215-0.061-0.131 0.411-0.164 0.873-0.023 1.284 0.037 0.107 0.21 0.098 0.205-0.023-0.019-0.411-0.033-0.799 0.033-1.2zM14.535 27.166c0.079 0.107 0.257 0.019 0.187-0.107-0.191-0.327-0.36-0.658-0.458-1.023-0.037-0.131-0.233-0.079-0.205 0.051 0.089 0.392 0.229 0.761 0.476 1.079zM13.788 26.751c0.070 0.098 0.224 0.014 0.164-0.093-0.215-0.388-0.341-0.766-0.406-1.2-0.014-0.103-0.173-0.075-0.173 0.019 0.005 0.453 0.149 0.911 0.416 1.275zM12.733 17.883c0.075-0.042 0.009-0.149-0.065-0.117-0.294 0.14-0.621 0.187-0.939 0.121-0.098-0.019-0.14 0.126-0.042 0.149 0.369 0.084 0.719 0.042 1.046-0.154zM12.317 17.514c0.098-0.033 0.089-0.201-0.023-0.187-0.364 0.047-0.719 0.065-1.079-0.005-0.135-0.028-0.191 0.168-0.061 0.201 0.388 0.098 0.785 0.117 1.163-0.009z">
            </path>
            <path fill="#1d1d1b" style="fill: var(--color23, #1d1d1b)"
                d="M19.77 17.831c0.019-0.117 0.196-0.126 0.192 0-0.009 0.462-0.070 0.929-0.215 1.368-0.042 0.131-0.229 0.079-0.205-0.056 0.084-0.434 0.173-0.869 0.229-1.312z">
            </path>
            <path fill="#1d1d1b" style="fill: var(--color23, #1d1d1b)"
                d="M19.448 7.884c0.145-0.037 0.238 0.117 0.182 0.243-0.065 0.149-0.252 0.28-0.383 0.383-0.093 0.079-0.299 0.009-0.238-0.14 0.079-0.191 0.229-0.43 0.439-0.486z">
            </path>
            <path fill="#1d1d1b" style="fill: var(--color23, #1d1d1b)"
                d="M19.261 18.625c0.135 0.434 0.098 0.901-0.107 1.303-0.056 0.107-0.238 0.028-0.196-0.084 0.154-0.397 0.215-0.775 0.168-1.2-0.009-0.079 0.112-0.089 0.135-0.019z">
            </path>
            <path fill="#1d1d1b" style="fill: var(--color23, #1d1d1b)"
                d="M18.509 8.057c0.149 0.201 0.14 0.532 0.084 0.771-0.042 0.177-0.294 0.126-0.304-0.042-0.014-0.224-0.089-0.425-0.107-0.645-0.014-0.187 0.238-0.21 0.327-0.084z">
            </path>
            <path fill="#1d1d1b" style="fill: var(--color23, #1d1d1b)"
                d="M17.094 1.384c0.051 0.079-0.056 0.145-0.121 0.093-0.341-0.29-0.691-0.528-1.139-0.617-0.093-0.019-0.070-0.182 0.023-0.168 0.481 0.061 0.962 0.271 1.237 0.691z">
            </path>
            <path fill="#1d1d1b" style="fill: var(--color23, #1d1d1b)"
                d="M17.085 1.949c0.093 0.093-0.047 0.229-0.145 0.145-0.336-0.289-0.696-0.537-1.065-0.78-0.107-0.070-0.014-0.22 0.098-0.168 0.42 0.187 0.799 0.476 1.111 0.803z">
            </path>
            <path fill="#1d1d1b" style="fill: var(--color23, #1d1d1b)"
                d="M16.548 24.22c0.023-0.149 0.271-0.112 0.257 0.033-0.037 0.322-0.084 0.645-0.135 0.967-0.023 0.14-0.261 0.103-0.248-0.033 0.033-0.327 0.070-0.649 0.126-0.967z">
            </path>
            <path fill="#1d1d1b" style="fill: var(--color23, #1d1d1b)"
                d="M16.314 5.339c0.009 0.145-0.201 0.135-0.22 0-0.023-0.215-0.051-0.43-0.070-0.644-0.019-0.154 0.233-0.154 0.243 0 0.019 0.215 0.033 0.43 0.047 0.644z">
            </path>
            <path fill="#1d1d1b" style="fill: var(--color23, #1d1d1b)"
                d="M16.188 12.923c0.079-0.019 0.117 0.103 0.033 0.126-0.402 0.121-0.808 0.047-1.158-0.182-0.070-0.047-0.005-0.154 0.065-0.112 0.322 0.196 0.691 0.248 1.060 0.168z">
            </path>
            <path fill="#1d1d1b" style="fill: var(--color23, #1d1d1b)"
                d="M16.174 20.283c0.009 0.224-0.028 0.448-0.070 0.663-0.019 0.103-0.168 0.075-0.168-0.023 0-0.22 0.009-0.448 0.061-0.663 0.023-0.103 0.173-0.075 0.178 0.023z">
            </path>
            <path fill="#1d1d1b" style="fill: var(--color23, #1d1d1b)"
                d="M15.847 11.943c0.079 0.084-0.037 0.191-0.121 0.121-0.205-0.164-0.402-0.336-0.593-0.514-0.098-0.093 0.047-0.243 0.149-0.149 0.191 0.177 0.383 0.355 0.565 0.542z">
            </path>
            <path fill="#1d1d1b" style="fill: var(--color23, #1d1d1b)"
                d="M15.436 18.905c0.047-0.135 0.233-0.079 0.215 0.061-0.065 0.402-0.051 0.789-0.033 1.2 0.005 0.121-0.168 0.131-0.205 0.023-0.14-0.411-0.107-0.873 0.023-1.284z">
            </path>
            <path fill="#1d1d1b" style="fill: var(--color23, #1d1d1b)"
                d="M14.722 27.059c0.070 0.126-0.107 0.215-0.187 0.107-0.248-0.318-0.388-0.686-0.476-1.079-0.028-0.131 0.168-0.182 0.205-0.051 0.098 0.364 0.266 0.696 0.458 1.023z">
            </path>
            <path fill="#1d1d1b" style="fill: var(--color23, #1d1d1b)"
                d="M13.951 26.657c0.061 0.107-0.093 0.192-0.164 0.093-0.266-0.364-0.411-0.822-0.416-1.275 0-0.093 0.159-0.121 0.173-0.019 0.066 0.434 0.192 0.813 0.406 1.2z">
            </path>
            <path fill="#1d1d1b" style="fill: var(--color23, #1d1d1b)"
                d="M12.667 17.766c0.075-0.033 0.14 0.075 0.065 0.117-0.327 0.196-0.677 0.238-1.046 0.154-0.098-0.023-0.056-0.168 0.042-0.149 0.318 0.065 0.645 0.019 0.939-0.121z">
            </path>
            <path fill="#1d1d1b" style="fill: var(--color23, #1d1d1b)"
                d="M12.294 17.327c0.112-0.014 0.121 0.154 0.023 0.187-0.378 0.126-0.775 0.107-1.163 0.009-0.131-0.033-0.075-0.229 0.061-0.201 0.36 0.070 0.715 0.051 1.079 0.005z">
            </path>
            <path fill="#1d1d1b" style="fill: var(--color23, #1d1d1b)"
                d="M11.967 8.557c0.070 0.093-0.070 0.177-0.145 0.112-0.154-0.131-0.238-0.299-0.28-0.5-0.033-0.131 0.177-0.191 0.205-0.056 0.037 0.173 0.117 0.303 0.22 0.444z">
            </path>
            <path fill="#1d1d1b" style="fill: var(--color23, #1d1d1b)"
                d="M11.434 9.089c0.047 0.075-0.065 0.159-0.126 0.093-0.248-0.257-0.35-0.57-0.35-0.925 0-0.131 0.201-0.131 0.205 0 0.005 0.299 0.107 0.584 0.271 0.831z">
            </path>
            <path fill="#1d1d1b" style="fill: var(--color23, #1d1d1b)"
                d="M10.921 15.281c0.107 0.019 0.084 0.205-0.028 0.196-0.411-0.042-0.794-0.163-1.163-0.355-0.117-0.061-0.014-0.233 0.103-0.177 0.345 0.168 0.71 0.271 1.088 0.336z">
            </path>
            <path fill="#1d1d1b" style="fill: var(--color23, #1d1d1b)"
                d="M10.164 15.692c0.098-0.028 0.159 0.117 0.070 0.164-0.453 0.238-0.99 0.126-1.359-0.21-0.103-0.093 0.051-0.243 0.154-0.154 0.317 0.285 0.738 0.327 1.135 0.201z">
            </path>
        </symbol>
        <symbol id="about-ice-cream-5" viewBox="0 0 32 32">
            <path fill="#fbd490" style="fill: var(--color29, #fbd490)"
                d="M16.723 31.418h-1.745c-0.64 0-1.164-0.524-1.164-1.164v-8.145h4.073v8.145c0 0.64-0.524 1.164-1.164 1.164z">
            </path>
            <path fill="#fbd490" style="fill: var(--color29, #fbd490)"
                d="M16.723 32h-1.745c-0.962 0-1.745-0.783-1.745-1.745v-8.727h5.236v8.727c0 0.962-0.783 1.745-1.745 1.745zM14.395 22.691v7.564c0 0.321 0.261 0.582 0.582 0.582h1.745c0.321 0 0.582-0.261 0.582-0.582v-7.564h-2.909z">
            </path>
            <path fill="#eeaf4b" style="fill: var(--color30, #eeaf4b)"
                d="M17.871 30.438c-0.064 0-0.129-0.010-0.193-0.033-0.145-0.051-0.343-0.097-0.563-0.15-0.838-0.201-1.88-0.45-2.23-1.199-0.114-0.244-0.197-0.642 0.055-1.149 0.060-0.123 0.193-0.424 0.103-0.563-0.145-0.225-0.798-0.34-1.21-0.328-0.33 0.037-0.591-0.239-0.602-0.561s0.24-0.591 0.561-0.602c0.273-0.013 1.666-0.014 2.23 0.86 0.209 0.325 0.372 0.885-0.040 1.711-0.048 0.097-0.044 0.136-0.043 0.137 0.047 0.153 0.534 0.342 1.447 0.561 0.265 0.063 0.503 0.122 0.678 0.183 0.303 0.106 0.463 0.439 0.356 0.741-0.084 0.242-0.309 0.391-0.549 0.391z">
            </path>
            <path fill="#eeaf4b" style="fill: var(--color30, #eeaf4b)"
                d="M17.886 26.764c-1.343 0-2.436-1.030-2.436-2.296s1.093-2.296 2.436-2.296c0.321 0 0.582 0.26 0.582 0.582s-0.261 0.582-0.582 0.582c-0.702 0-1.272 0.509-1.272 1.133s0.57 1.133 1.272 1.133c0.321 0 0.582 0.26 0.582 0.582s-0.261 0.582-0.582 0.582z">
            </path>
            <path fill="#f9da49" style="fill: var(--color31, #f9da49)"
                d="M21.253 22.109h-10.506c-0.607 0-1.076-0.535-0.997-1.137l2.304-17.511c0.261-1.98 1.949-3.461 3.946-3.461v0c1.997 0 3.686 1.481 3.946 3.461l2.304 17.511c0.079 0.602-0.39 1.137-0.997 1.137z">
            </path>
            <path fill="#00d7ec" style="fill: var(--color32, #00d7ec)"
                d="M17.874 22.109l3.991-4.065-0.386-2.929-6.867 6.995z"></path>
            <path fill="#00d7ec" style="fill: var(--color32, #00d7ec)"
                d="M10.747 22.109h1.812l8.692-8.729-0.383-2.913-11.024 11.070c0.161 0.335 0.499 0.572 0.902 0.572z">
            </path>
            <path fill="#00d7ec" style="fill: var(--color32, #00d7ec)"
                d="M9.955 19.411l10.695-10.601-0.381-2.899-9.818 9.732z"></path>
            <path fill="#00d7ec" style="fill: var(--color32, #00d7ec)"
                d="M19.946 3.461c-0.078-0.594-0.287-1.142-0.592-1.62l-8.161 8.161-0.499 3.789 9.377-9.377-0.125-0.954z">
            </path>
            <path fill="#00d7ec" style="fill: var(--color32, #00d7ec)"
                d="M16 0c-0.015 0-0.028 0.002-0.043 0.002l-3.971 3.971-0.499 3.789 6.936-6.935c-0.674-0.519-1.516-0.827-2.423-0.827z">
            </path>
        </symbol>
        <symbol id="about-ice-cream-6" viewBox="0 0 32 32">
            <path fill="#ee8fbd" style="fill: var(--color33, #ee8fbd)"
                d="M12.796 4.978c-2.414 0-4.379 1.964-4.379 4.378s1.964 4.379 4.378 4.379 4.378-1.964 4.378-4.378-1.964-4.378-4.378-4.378z">
            </path>
            <path fill="#de71a6" style="fill: var(--color34, #de71a6)"
                d="M12.796 4.978v8.757c2.414 0 4.379-1.964 4.379-4.378s-1.964-4.378-4.378-4.378z"></path>
            <path fill="#6d2b92" style="fill: var(--color35, #6d2b92)"
                d="M19.554 4.978c-2.414 0-4.378 1.964-4.378 4.378s1.964 4.379 4.378 4.379 4.378-1.964 4.378-4.378-1.964-4.378-4.378-4.378z">
            </path>
            <path fill="#ffc9e3" style="fill: var(--color36, #ffc9e3)"
                d="M11.013 10.359c-0.554 0-1.002-0.449-1.002-1.002 0-1.536 1.25-2.786 2.786-2.786 0.554 0 1.002 0.449 1.002 1.002s-0.449 1.002-1.002 1.002c-0.431 0-0.781 0.35-0.781 0.781 0 0.554-0.449 1.002-1.002 1.002z">
            </path>
            <path fill="#f1b559" style="fill: var(--color37, #f1b559)"
                d="M23.659 11.576c-0.188-0.268-0.494-0.428-0.821-0.428h-13.768c-0.327 0-0.634 0.16-0.821 0.428s-0.232 0.611-0.12 0.918l6.884 18.847c0.145 0.395 0.521 0.658 0.941 0.658s0.797-0.263 0.942-0.658l6.884-18.847c0.112-0.307 0.067-0.65-0.12-0.918z">
            </path>
            <path fill="#5f1d85" style="fill: var(--color38, #5f1d85)"
                d="M19.554 4.978v8.757c2.414 0 4.378-1.964 4.378-4.378s-1.964-4.378-4.378-4.378z"></path>
            <path fill="#ea971e" style="fill: var(--color39, #ea971e)"
                d="M23.659 11.576c-0.188-0.268-0.494-0.428-0.821-0.428h-6.884v20.852c0.421 0 0.797-0.263 0.941-0.658l6.884-18.847c0.112-0.307 0.067-0.65-0.12-0.918z">
            </path>
            <path fill="#c075eb" style="fill: var(--color40, #c075eb)"
                d="M17.69 10.359c-0.554 0-1.002-0.449-1.002-1.002 0-1.58 1.286-2.866 2.866-2.866 0.554 0 1.002 0.449 1.002 1.002s-0.449 1.002-1.002 1.002c-0.475 0-0.862 0.387-0.862 0.862-0 0.554-0.449 1.002-1.002 1.002z">
            </path>
            <path fill="#f6d433" style="fill: var(--color41, #f6d433)"
                d="M16.178 0c-2.414 0-4.378 1.964-4.378 4.378s1.964 4.378 4.378 4.378c2.414 0 4.378-1.964 4.378-4.378s-1.964-4.378-4.378-4.378z">
            </path>
            <path fill="#e5bf2b" style="fill: var(--color42, #e5bf2b)"
                d="M16.178 0v8.757c2.414 0 4.378-1.964 4.378-4.378s-1.964-4.378-4.378-4.378z"></path>
            <path fill="#ffeb96" style="fill: var(--color43, #ffeb96)"
                d="M14.495 5.381c-0.554 0-1.002-0.449-1.002-1.002 0-1.481 1.205-2.685 2.685-2.685 0.554 0 1.002 0.449 1.002 1.002s-0.449 1.002-1.002 1.002c-0.375 0-0.681 0.305-0.681 0.681 0 0.554-0.449 1.002-1.002 1.002z">
            </path>
            <path fill="#ea971e" style="fill: var(--color39, #ea971e)"
                d="M8.248 11.576c-0.188 0.268-0.232 0.611-0.12 0.918l0.194 0.531h9.792v-1.878h-9.045c-0.327-0-0.634 0.16-0.821 0.428z">
            </path>
        </symbol>
        <symbol id="about-ice-cream-7" viewBox="0 0 32 32">
            <path fill="#f5f7fa" style="fill: var(--color44, #f5f7fa)"
                d="M12.387 2.527c3.818 4.75-7.083 2.833-3.648 14.089 2.532 8.297 12.272 5.23 14.419 0 6.022-14.673-15.818-20.37-10.77-14.089z">
            </path>
            <path fill="#ed5564" style="fill: var(--color45, #ed5564)"
                d="M13.119 3.771c0.355-0.151 0.783-0.356 1.213-0.62 1.123-0.689 1.803-1.479 2.029-2.353-3.385-1.45-6.129-0.951-3.975 1.729 0.382 0.474 0.616 0.882 0.732 1.244z">
            </path>
            <path fill="#ed5564" style="fill: var(--color45, #ed5564)"
                d="M24.148 10.406c-0.198 0.327-0.432 0.687-0.702 1.065-0.962 1.347-2.593 3.188-4.893 4.3l-0.581-1.2c2.036-0.985 3.499-2.636 4.369-3.847 0.764-1.064 1.218-1.988 1.372-2.323-0.223-0.685-0.51-1.331-0.851-1.936-0.489 0.718-1.449 2.027-2.856 3.491-1.224 1.273-2.533 2.4-3.894 3.351-1.708 1.193-3.501 2.11-5.329 2.724l-0.425-1.264c3.875-1.302 6.862-3.837 8.685-5.734 1.81-1.882 2.851-3.509 3.024-3.79-0.464-0.625-0.982-1.197-1.533-1.714-0.705 1.366-1.723 2.66-3.034 3.856-1.203 1.097-2.656 2.116-4.318 3.027-2.369 1.299-4.459 1.999-5.124 2.207 0 1.112 0.2 2.426 0.679 3.997 2.532 8.297 12.272 5.23 14.419 0 0.94-2.293 1.202-4.367 0.99-6.21z">
            </path>
            <path fill="#ed5564" style="fill: var(--color45, #ed5564)"
                d="M16.615 6.39c1.278-1.168 2.243-2.428 2.874-3.75-0.625-0.481-1.27-0.898-1.912-1.25-0.819 2.468-3.876 3.63-4.742 3.914-1.053 1.363-4.003 2.364-4.648 5.87 0.905-0.313 2.574-0.949 4.382-1.943 1.564-0.86 2.926-1.816 4.047-2.84z">
            </path>
            <path fill="#f6bb42" style="fill: var(--color46, #f6bb42)" d="M21.334 32h-10.668l-2-13.703h14.667z"></path>
            <path fill="#e8a734" style="fill: var(--color47, #e8a734)"
                d="M22.976 20.748l-3.204 3.205-2.829-2.829 0.063-0.063-0.943-0.943-0.063 0.064-0.085-0.085-0.942 0.942 0.085 0.085-2.829 2.829-3.204-3.205 0.322 2.208 1.939 1.939-1.445 1.445 0.24 1.645 2.147-2.148 2.829 2.829-3.195 3.195 0.138 0.138h1.609l2.391-2.391 2.391 2.391h1.885l-3.332-3.333 2.829-2.829 2.147 2.148 0.24-1.645-1.445-1.445 1.939-1.939 0.322-2.208zM16 27.724l-2.829-2.828 2.829-2.828 2.828 2.828-2.828 2.828z">
            </path>
            <path fill="#000" style="fill: var(--color48, #000)"
                d="M8.502 17.955l-0.943-0.942 2.068-2.068 0.943 0.943z"></path>
            <path fill="#000" style="fill: var(--color48, #000)"
                d="M10.918 21.197l-0.943-0.943 5.554-5.554 0.943 0.942z"></path>
            <path fill="#000" style="fill: var(--color48, #000)"
                d="M23.645 18.103l-2.248-2.249 0.942-0.943 2.249 2.249z"></path>
            <path fill="#000" style="fill: var(--color48, #000)"
                d="M20.999 21.113l-5.324-5.324 0.943-0.943 5.324 5.324z"></path>
            <path fill="#ffce54" style="fill: var(--color49, #ffce54)"
                d="M24.666 20c0 0.736-0.596 1.333-1.332 1.333h-14.667c-0.736 0-1.333-0.597-1.333-1.333v-4c0-0.736 0.597-1.333 1.333-1.333h14.667c0.736 0 1.332 0.597 1.332 1.333v4z">
            </path>
            <path fill="#f6bb42" style="fill: var(--color46, #f6bb42)"
                d="M8.862 15.138c0.26 0.26 0.683 0.26 0.943 0 0.13-0.13 0.195-0.301 0.195-0.471h-1.333c0 0.17 0.065 0.341 0.195 0.471z">
            </path>
            <path fill="#f6bb42" style="fill: var(--color46, #f6bb42)"
                d="M11.529 15.138c0.26 0.26 0.682 0.26 0.943 0 0.13-0.13 0.195-0.301 0.195-0.471h-1.333c0 0.17 0.065 0.341 0.195 0.471z">
            </path>
            <path fill="#f6bb42" style="fill: var(--color46, #f6bb42)"
                d="M14.196 15.138c0.26 0.26 0.683 0.26 0.943 0 0.13-0.13 0.195-0.301 0.195-0.471h-1.333c0 0.17 0.065 0.341 0.195 0.471z">
            </path>
            <path fill="#f6bb42" style="fill: var(--color46, #f6bb42)"
                d="M16.862 15.138c0.26 0.26 0.683 0.26 0.943 0 0.131-0.13 0.195-0.301 0.195-0.471h-1.333c0 0.17 0.065 0.341 0.195 0.471z">
            </path>
            <path fill="#f6bb42" style="fill: var(--color46, #f6bb42)"
                d="M19.529 15.138c0.261 0.26 0.683 0.26 0.942 0 0.131-0.13 0.195-0.301 0.195-0.471h-1.332c-0.001 0.17 0.064 0.341 0.194 0.471z">
            </path>
            <path fill="#f6bb42" style="fill: var(--color46, #f6bb42)"
                d="M22 14.667c0 0.17 0.064 0.341 0.195 0.471 0.26 0.26 0.683 0.26 0.943 0 0.129-0.13 0.194-0.301 0.194-0.471h-1.333z">
            </path>
        </symbol>
        <symbol id="about-ice-cream-8" viewBox="0 0 32 32">
            <path fill="#e8c252" style="fill: var(--color50, #e8c252)" d="M9.957 12.835l6.563 18.351 7.622-17.937z">
            </path>
            <path fill="#e68123" style="fill: var(--color51, #e68123)"
                d="M22.911 13.698l-6.78 16.41 0.559 1.482 7.232-17.881z"></path>
            <path fill="#040000" style="fill: var(--color52, #040000)"
                d="M19.743 23.52c-0.083-0-0.151-0.068-0.151-0.151 0-0.020 0.004-0.039 0.011-0.056l-0 0.001 4.382-11.209h-14.906l1.769 4.526c0.007 0.016 0.010 0.035 0.010 0.055 0 0.064-0.039 0.118-0.095 0.14l-0.001 0c-0.077 0.030-0.165-0.008-0.196-0.086l-1.93-4.938h15.79l-4.543 11.621c-0.023 0.057-0.077 0.096-0.141 0.096v0zM19.028 25.347c-0.083-0-0.151-0.068-0.151-0.151 0-0.020 0.004-0.039 0.011-0.056l-0 0.001 0.383-0.981c0.023-0.057 0.077-0.096 0.141-0.096 0.020 0 0.039 0.004 0.056 0.011l-0.001-0c0.057 0.023 0.096 0.077 0.096 0.141 0 0.020-0.004 0.039-0.011 0.056l0-0.001-0.383 0.981c-0.023 0.057-0.077 0.096-0.141 0.096-0 0-0 0-0 0v0zM16.531 32l-4.55-11.639c-0.007-0.016-0.010-0.035-0.010-0.055 0-0.064 0.039-0.118 0.095-0.14l0.001-0c0.078-0.031 0.165 0.008 0.196 0.086l4.269 10.92 1.982-5.071c0.030-0.078 0.118-0.116 0.196-0.086 0.057 0.023 0.096 0.077 0.096 0.141 0 0.020-0.004 0.039-0.011 0.056l0-0.001-2.264 5.791zM11.681 19.33c-0.064 0-0.118-0.039-0.14-0.095l-0-0.001-0.495-1.265c-0.007-0.016-0.010-0.035-0.010-0.055 0-0.064 0.039-0.118 0.095-0.14l0.001-0c0.016-0.007 0.035-0.010 0.055-0.010 0.064 0 0.118 0.039 0.14 0.095l0 0.001 0.495 1.265c0.007 0.016 0.010 0.035 0.010 0.055 0 0.083-0.068 0.151-0.151 0.151-0 0-0 0-0 0v0z">
            </path>
            <path fill="#040000" style="fill: var(--color52, #040000)"
                d="M14.521 15.063l-0.194-0.232-0.912 0.881 0.194 0.232zM14.738 14.853l1.438-1.39-0.004-0.005-0.412-0.013-1.216 1.176zM13.197 15.923l-1.598 1.545 0.106 0.318 1.687-1.631zM15.521 18.7l-0.194-0.232-1.824 1.764 0.194 0.232zM16.867 17.397l1.438-1.39-0.194-0.232-1.438 1.39zM15.738 18.489l0.912-0.881-0.194-0.232-0.911 0.881zM13.284 20.442l-0.527 0.509 0.106 0.318 0.615-0.595zM20.343 14.037l-0.194-0.232-0.752 0.727 0.194 0.232zM19.373 14.975l-0.194-0.232-0.85 0.822 0.194 0.232zM20.56 13.827l0.232-0.224-0.421-0.013-0.005 0.005zM17.366 20.435l0.912-0.881-0.194-0.232-0.912 0.881zM16.954 20.413l-1.824 1.764 0.194 0.232 1.824-1.764zM22.991 14.715l0.088-0.224-0.152 0.147zM19.957 17.51l0.194 0.232 0.85-0.822-0.194-0.232zM21.994 15.54l0.194 0.232 0.622-0.602 0.054-0.136-0.155-0.186zM21.024 16.478l0.194 0.232 0.752-0.727-0.194-0.232zM18.301 19.111l0.194 0.232 1.438-1.39-0.194-0.232zM14.912 22.388l-1.268 1.226 0.106 0.318 1.357-1.312zM18.758 22.098l0.194 0.232 0.911-0.881-0.194-0.232zM16.693 24.516l-0.194-0.232-1.5 1.45 0.194 0.232zM20.082 21.239l0.535-0.517 0.269-0.68-0.998 0.965zM14.781 25.944l-0.274 0.265 0.106 0.318 0.363-0.351zM16.716 24.073l0.194 0.232 1.825-1.764-0.194-0.232zM18.466 26.164l0.226-0.571-0.389 0.376zM16.367 27.84l-0.997 0.964 0.106 0.318 1.086-1.050zM16.779 27.861l1.5-1.45-0.194-0.232-1.5 1.45zM22.927 14.638l-0.832-0.995-0.404-0.013 1.019 1.218z">
            </path>
            <path fill="#040000" style="fill: var(--color52, #040000)"
                d="M22.709 14.849l0.155 0.186 0.126-0.32-0.064-0.076zM19.933 17.953l1.207 1.443 0.126-0.32-1.116-1.334zM18.111 15.775l0.218-0.21-1.752-2.094-0.396-0.012-0.005 0.005zM19.957 17.51l-1.434-1.713-0.218 0.21 1.434 1.714z">
            </path>
            <path fill="#040000" style="fill: var(--color52, #040000)"
                d="M16.181 13.458l-0.009-0 0.004 0.005zM18.523 15.797l-0.194-0.232-0.218 0.21 0.194 0.232zM19.739 17.721l0.194 0.232 0.218-0.21-0.194-0.232zM21.024 16.478l-1.434-1.713-0.218 0.21 1.434 1.714zM21.001 16.921l0.76 0.908 0.126-0.32-0.668-0.799zM19.396 14.533l-0.837-1-0.404-0.013 1.023 1.223z">
            </path>
            <path fill="#040000" style="fill: var(--color52, #040000)"
                d="M19.59 14.765l-0.194-0.232-0.218 0.21 0.194 0.232zM20.806 16.689l0.194 0.232 0.218-0.21-0.194-0.232zM17.148 20.645l1.392 1.664 0.218-0.21-1.392-1.664zM17.172 20.203l-1.434-1.714-0.218 0.21 1.434 1.714zM18.735 22.541l0.79 0.944 0.126-0.32-0.698-0.834zM11.682 13.642l-0.232 0.194 1.747 2.088 0.218-0.21zM13.609 15.945l-0.218 0.21 1.935 2.312 0.218-0.21z">
            </path>
            <path fill="#040000" style="fill: var(--color52, #040000)"
                d="M13.609 15.945l-0.194-0.232-0.218 0.21 0.194 0.232zM15.738 18.489l-0.194-0.232-0.218 0.21 0.194 0.232zM17.148 20.645l0.218-0.21-0.194-0.232-0.218 0.21zM18.541 22.309l0.194 0.232 0.218-0.21-0.194-0.232zM14.544 14.621l-1.043-1.247-0.404-0.013 1.23 1.47zM19.67 21.217l0.218-0.21-1.392-1.664-0.218 0.21zM18.084 19.321l0.218-0.21-1.434-1.714-0.218 0.21zM16.455 17.376l0.218-0.211-1.935-2.312-0.218 0.21zM19.864 21.449l0.316 0.377 0.126-0.32-0.224-0.268z">
            </path>
            <path fill="#040000" style="fill: var(--color52, #040000)"
                d="M14.738 14.853l-0.194-0.232-0.218 0.21 0.194 0.232zM16.867 17.397l-0.194-0.232-0.218 0.211 0.194 0.232zM18.084 19.321l0.194 0.232 0.218-0.21-0.194-0.232zM19.864 21.449l0.218-0.21-0.194-0.232-0.218 0.21zM20.366 13.595l-0.004-0.005-0.404-0.013 0.191 0.228zM21.777 15.751l0.218-0.21-1.434-1.714-0.218 0.21zM21.971 15.983l0.352 0.421 0.126-0.32-0.261-0.312zM20.56 13.827l-0.194-0.232-0.218 0.21 0.194 0.232z">
            </path>
            <path fill="#040000" style="fill: var(--color52, #040000)"
                d="M21.971 15.983l0.218-0.21-0.194-0.232-0.218 0.21zM18.339 26.483l0.083-0.211-0.144 0.139zM18.085 26.179l0.218-0.21-1.392-1.664-0.218 0.21zM13.502 20.232l-1.633-1.952 0.26 0.781 1.155 1.381zM15.324 22.409l-0.218 0.21 1.392 1.664 0.218-0.21zM13.696 20.464l-0.218 0.21 1.434 1.714 0.218-0.21z">
            </path>
            <path fill="#040000" style="fill: var(--color52, #040000)"
                d="M13.502 20.232l-0.218 0.21 0.194 0.232 0.218-0.21zM15.13 22.177l-0.218 0.21 0.194 0.232 0.218-0.21zM16.498 24.284l0.194 0.232 0.218-0.21-0.194-0.232zM18.085 26.179l0.194 0.232 0.144-0.139 0.043-0.109-0.163-0.195zM16.562 28.072l0.781 0.933 0.126-0.32-0.689-0.824zM14.999 25.733l-1.079-1.29 0.26 0.781 0.602 0.719zM15.193 25.965l-0.218 0.211 1.392 1.664 0.218-0.21z">
            </path>
            <path fill="#040000" style="fill: var(--color52, #040000)"
                d="M14.999 25.733l-0.218 0.21 0.194 0.232 0.218-0.211zM16.367 27.84l0.194 0.232 0.218-0.21-0.194-0.232zM15.92 30.456l0.576 0.689 0.126-0.32-0.962-1.15z">
            </path>
            <path fill="#fbd7b6" style="fill: var(--color53, #fbd7b6)"
                d="M8.614 11.302c-0.043 0.133-0.068 0.286-0.068 0.445v0c0 1.020 1.032 1.847 2.304 1.847h12.117c1.273 0 2.304-0.827 2.304-1.847 0-0.742-0.547-1.382-1.335-1.676 0.083-0.21 0.131-0.437 0.131-0.675 0-1.028-0.851-1.863-1.912-1.894 0.245-0.264 0.395-0.612 0.395-0.994 0-0.826-0.696-1.495-1.555-1.495h-0.077c0.071-0.142 0.111-0.301 0.111-0.469 0-0.603-0.508-1.093-1.136-1.093h-0.734c0.056-0.137 0.088-0.296 0.088-0.466 0-0.512-0.31-0.781-0.645-0.926-0.794-0.343-3.53-2.619-3.023-1.662 0.062 0.117-0.367 1.662-0.367 1.662-0.356 0-0.645 0.415-0.645 0.926 0 0.17 0.033 0.329 0.088 0.466h-0.734c-0.627 0-1.136 0.489-1.136 1.093 0 0.168 0.041 0.327 0.111 0.469h-0.077c-0.859 0-1.555 0.67-1.555 1.495 0 0.382 0.15 0.729 0.395 0.994-1.061 0.031-1.912 0.866-1.912 1.895 0 0.238 0.048 0.465 0.131 0.675-0.214 0.080-0.41 0.185-0.582 0.311z">
            </path>
            <path fill="#000" style="fill: var(--color48, #000)"
                d="M22.967 13.757h-12.117c-1.36 0-2.467-0.902-2.467-2.010 0-0.167 0.025-0.333 0.075-0.494 0.022-0.066 0.083-0.113 0.155-0.113 0.090 0 0.163 0.073 0.163 0.163 0 0.016-0.002 0.032-0.007 0.047l0-0.001c-0.038 0.119-0.060 0.255-0.060 0.397v0c0 0.929 0.961 1.684 2.142 1.684h12.117c1.181 0 2.142-0.756 2.142-1.684 0-0.647-0.482-1.245-1.229-1.523l-0.156-0.058 0.061-0.154c0.079-0.2 0.119-0.407 0.119-0.615 0-0.942-0.77-1.703-1.754-1.732l-0.358-0.011 0.244-0.263c0.227-0.245 0.352-0.558 0.352-0.883 0-0.735-0.624-1.333-1.392-1.333h-0.339l0.117-0.235c0.063-0.126 0.094-0.26 0.094-0.397 0-0.513-0.436-0.93-0.973-0.93h-0.976l0.091-0.224c0.050-0.123 0.076-0.263 0.076-0.405 0-0.364-0.179-0.618-0.547-0.777-0.311-0.135-0.869-0.525-1.459-0.939-0.426-0.299-1.028-0.72-1.336-0.879 0.012 0.126-0.032 0.479-0.374 1.713l-0.033 0.119h-0.124c-0.261 0-0.482 0.35-0.482 0.764 0 0.142 0.026 0.282 0.076 0.405l0.091 0.224h-0.976c-0.537 0-0.973 0.417-0.973 0.93 0 0.137 0.032 0.271 0.094 0.397l0.117 0.235h-0.339c-0.768 0-1.392 0.598-1.392 1.333 0 0.325 0.125 0.638 0.352 0.883l0.244 0.263-0.358 0.011c-0.983 0.029-1.754 0.79-1.754 1.732 0 0.209 0.040 0.416 0.119 0.615l0.061 0.154-0.156 0.058c-0.199 0.074-0.381 0.171-0.543 0.29-0.027 0.020-0.060 0.031-0.096 0.031-0.054 0-0.101-0.026-0.131-0.066l-0-0c-0.020-0.027-0.031-0.060-0.031-0.096 0-0.054 0.026-0.101 0.066-0.131l0-0c0.145-0.106 0.303-0.197 0.473-0.272-0.056-0.174-0.089-0.375-0.089-0.583v-0c0-1.020 0.755-1.861 1.767-2.028-0.163-0.258-0.251-0.555-0.251-0.86 0-0.864 0.688-1.575 1.562-1.651-0.026-0.094-0.041-0.201-0.041-0.312 0-0 0-0.001 0-0.001v0c0-0.692 0.582-1.255 1.298-1.255h0.515c-0.020-0.091-0.032-0.196-0.032-0.303 0-0 0-0 0-0v0c0-0.552 0.29-0.996 0.68-1.076 0.172-0.628 0.335-1.306 0.338-1.461-0.047-0.092-0.128-0.278 0.003-0.394 0.194-0.172 0.544 0.040 1.84 0.948 0.551 0.386 1.12 0.785 1.401 0.907 0.486 0.21 0.743 0.582 0.743 1.076 0 0.103-0.011 0.205-0.032 0.304h0.515c0.716 0 1.298 0.563 1.298 1.255 0 0 0 0.001 0 0.001 0 0.111-0.015 0.219-0.043 0.321l0.002-0.008c0.874 0.076 1.562 0.788 1.562 1.651 0 0.305-0.087 0.602-0.251 0.86 1.012 0.167 1.767 1.008 1.767 2.028 0 0.197-0.030 0.392-0.089 0.583 0.79 0.349 1.292 1.029 1.292 1.768 0 1.108-1.107 2.010-2.467 2.010z">
            </path>
            <path fill="#000" style="fill: var(--color48, #000)"
                d="M22.919 11.027h-6.043c-0.090 0-0.163-0.073-0.163-0.163s0.073-0.163 0.163-0.163v0h6.043c0.089 0.001 0.16 0.074 0.16 0.163s-0.072 0.161-0.16 0.163h-0zM15.864 11.027h-0.796c-0.090 0-0.163-0.073-0.163-0.163s0.073-0.163 0.163-0.163v0h0.796c0.089 0.001 0.16 0.074 0.16 0.163s-0.072 0.161-0.16 0.163h-0zM13.766 11.027h-3.033c-0.001 0-0.002 0-0.002 0-0.090 0-0.163-0.073-0.163-0.163s0.073-0.163 0.163-0.163c0.001 0 0.002 0 0.003 0h3.033c0.089 0.001 0.16 0.074 0.16 0.163s-0.072 0.161-0.16 0.163h-0zM21.4 7.954h-2.065c-0.090 0-0.163-0.073-0.163-0.163s0.073-0.163 0.163-0.163h2.065c0.090 0 0.163 0.073 0.163 0.163s-0.073 0.163-0.163 0.163v0zM18.106 7.954h-5.275c-0.089-0.001-0.16-0.074-0.16-0.163s0.072-0.161 0.16-0.163h5.276c0.090 0 0.163 0.073 0.163 0.163s-0.073 0.163-0.163 0.163v0zM19.194 5.621h-1.939c-0.090 0-0.163-0.073-0.163-0.163s0.073-0.163 0.163-0.163v0h1.939c0.090 0 0.163 0.073 0.163 0.163s-0.073 0.163-0.163 0.163v0zM15.52 5.621h-1.533c-0.088-0.002-0.159-0.074-0.159-0.163s0.071-0.161 0.159-0.163h1.533c0.090 0 0.163 0.073 0.163 0.163s-0.073 0.163-0.163 0.163v0zM17.73 3.669h-1.92c-0.090-0-0.163-0.073-0.163-0.163s0.073-0.163 0.163-0.163h1.92c0.090 0 0.163 0.073 0.163 0.163s-0.073 0.163-0.163 0.163v0z">
            </path>
        </symbol>
        <symbol id="about-ice-cream-9" viewBox="0 0 32 32">
            <path fill="#f1c84f" style="fill: var(--color54, #f1c84f)" d="M9.009 11.88l6.891 19.266 8.001-18.831z">
            </path>
            <path fill="#f0841b" style="fill: var(--color55, #f0841b)"
                d="M22.609 12.786l-7.118 17.228 0.587 1.556 7.593-18.772z"></path>
            <path fill="#000" style="fill: var(--color48, #000)"
                d="M19.282 23.097c-0.088-0-0.158-0.071-0.158-0.159 0-0.021 0.004-0.041 0.011-0.059l-0 0.001 4.6-11.768h-15.649l1.857 4.752c0.006 0.016 0.009 0.035 0.009 0.054 0 0.088-0.071 0.159-0.159 0.159-0.065 0-0.122-0.040-0.146-0.096l-0-0.001-2.026-5.184h16.577l-4.769 12.2c-0.024 0.059-0.081 0.101-0.148 0.101 0 0 0 0-0 0v0zM18.532 25.016c-0.087-0-0.158-0.071-0.158-0.159 0-0.021 0.004-0.041 0.011-0.059l-0 0.001 0.402-1.029c0.024-0.059 0.081-0.101 0.148-0.101 0.021 0 0.040 0.004 0.059 0.011l-0.001-0c0.060 0.024 0.101 0.081 0.101 0.148 0 0.021-0.004 0.041-0.011 0.059l0-0.001-0.402 1.029c-0.024 0.060-0.081 0.101-0.148 0.101v0zM15.91 32l-4.777-12.22c-0.007-0.017-0.011-0.037-0.011-0.058 0-0.067 0.041-0.124 0.1-0.147l0.001-0c0.017-0.007 0.037-0.011 0.058-0.011 0.067 0 0.124 0.041 0.147 0.1l0 0.001 4.481 11.464 2.081-5.324c0.032-0.082 0.124-0.121 0.205-0.090 0.059 0.024 0.101 0.081 0.101 0.148 0 0.021-0.004 0.041-0.011 0.059l0-0.001-2.377 6.079zM10.819 18.699c-0.067 0-0.124-0.041-0.147-0.1l-0-0.001-0.519-1.328c-0.007-0.017-0.011-0.037-0.011-0.058 0-0.067 0.041-0.124 0.1-0.147l0.001-0c0.017-0.007 0.037-0.011 0.058-0.011 0.067 0 0.124 0.041 0.147 0.1l0 0.001 0.519 1.328c0.007 0.017 0.011 0.037 0.011 0.058 0 0.088-0.071 0.158-0.158 0.159v0z">
            </path>
            <path fill="#ec7699" style="fill: var(--color56, #ec7699)"
                d="M9.781 5.593c0 0 0 0 0 0 0 2.961 2.941 5.361 6.569 5.361s6.569-2.4 6.569-5.362c0-0 0-0 0-0v0c0-0 0-0 0-0 0-2.961-2.941-5.362-6.569-5.362s-6.569 2.4-6.569 5.362c0 0 0 0 0 0v0z">
            </path>
            <path fill="#d8476d" style="fill: var(--color57, #d8476d)"
                d="M16.781 0.231c-0.221 0-0.439 0.010-0.653 0.029 3.165 0.297 5.638 2.858 5.638 5.974 0 1.403-0.503 2.693-1.343 3.715 1.58-0.973 2.611-2.561 2.611-4.357 0-2.961-2.8-5.362-6.253-5.362z">
            </path>
            <path fill="#040000" style="fill: var(--color52, #040000)"
                d="M10.393 2.619c-0.088-0-0.158-0.071-0.158-0.159 0-0.041 0.016-0.079 0.042-0.107l-0 0c0.344-0.375 0.738-0.716 1.172-1.014 0.025-0.017 0.056-0.028 0.090-0.028 0.054 0 0.102 0.027 0.13 0.068l0 0.001c0.017 0.025 0.028 0.056 0.028 0.090 0 0.054-0.027 0.102-0.068 0.13l-0.001 0c-0.414 0.284-0.79 0.609-1.118 0.966-0.029 0.032-0.071 0.051-0.117 0.051-0 0-0 0-0 0v0z">
            </path>
            <path fill="#040000" style="fill: var(--color52, #040000)"
                d="M15.91 12.337c-3.952 0-7.168-2.767-7.168-6.168 0-0.906 0.223-1.779 0.662-2.594 0.028-0.049 0.079-0.081 0.138-0.081 0.088 0 0.159 0.071 0.159 0.159 0 0.027-0.007 0.052-0.018 0.074l0-0.001c-0.414 0.768-0.624 1.591-0.624 2.443 0 3.226 3.073 5.851 6.851 5.851s6.851-2.625 6.851-5.851c0-3.227-3.073-5.851-6.851-5.851-1.094 0-2.14 0.214-3.108 0.636-0.019 0.008-0.040 0.013-0.063 0.013-0.065 0-0.12-0.039-0.145-0.094l-0-0.001c-0.008-0.019-0.013-0.040-0.013-0.063 0-0.065 0.039-0.12 0.094-0.145l0.001-0c1.008-0.439 2.096-0.662 3.235-0.662 3.952 0 7.168 2.767 7.168 6.168s-3.216 6.168-7.168 6.168z">
            </path>
            <path fill="#e5c569" style="fill: var(--color58, #e5c569)"
                d="M15.91 2.147c0 0.137 0.111 0.247 0.247 0.247s0.247-0.111 0.247-0.247v0c0-0.137-0.111-0.247-0.247-0.247s-0.247 0.111-0.247 0.247v0z">
            </path>
            <path fill="#e5c569" style="fill: var(--color58, #e5c569)"
                d="M16.666 1.653c0 0.137 0.111 0.247 0.247 0.247s0.247-0.111 0.247-0.247v0c0-0.137-0.111-0.247-0.247-0.247s-0.247 0.111-0.247 0.247v0z">
            </path>
            <path fill="#e5c569" style="fill: var(--color58, #e5c569)"
                d="M16.666 2.642c0 0.137 0.111 0.247 0.247 0.247s0.247-0.111 0.247-0.247v0c0-0.137-0.111-0.247-0.247-0.247s-0.247 0.111-0.247 0.247v0z">
            </path>
            <path fill="#e5c569" style="fill: var(--color58, #e5c569)"
                d="M17.989 1.9c-0.002 0.135-0.112 0.243-0.247 0.243s-0.245-0.108-0.247-0.243v-0c0.002-0.135 0.112-0.243 0.247-0.243s0.245 0.108 0.247 0.243v0z">
            </path>
            <path fill="#e5c569" style="fill: var(--color58, #e5c569)"
                d="M14.617 2.901c0 0.179 0.145 0.324 0.324 0.324s0.324-0.145 0.324-0.324v0c0-0.179-0.145-0.324-0.324-0.324s-0.324 0.145-0.324 0.324v0z">
            </path>
            <path fill="#e5c569" style="fill: var(--color58, #e5c569)"
                d="M17.989 3.555c0 0 0 0 0 0 0 0.137-0.111 0.247-0.247 0.247s-0.247-0.111-0.247-0.247c0-0.137 0.111-0.247 0.247-0.247 0 0 0 0 0 0v0c0.137 0 0.247 0.111 0.247 0.247z">
            </path>
            <path fill="#e5c569" style="fill: var(--color58, #e5c569)"
                d="M15.91 1.405c0 0.137 0.111 0.247 0.247 0.247s0.247-0.111 0.247-0.247v0c0-0.137-0.111-0.247-0.247-0.247s-0.247 0.111-0.247 0.247v0z">
            </path>
            <path fill="#e5c569" style="fill: var(--color58, #e5c569)"
                d="M17.989 2.642c0 0 0 0 0 0 0 0.137-0.111 0.247-0.247 0.247s-0.247-0.111-0.247-0.247c0-0.137 0.111-0.247 0.247-0.247 0 0 0 0 0 0v0c0.137 0 0.247 0.111 0.247 0.247z">
            </path>
            <path fill="#e5c569" style="fill: var(--color58, #e5c569)"
                d="M18.462 2.642c0 0.137 0.111 0.247 0.247 0.247s0.247-0.111 0.247-0.247v0c0-0.137-0.111-0.247-0.247-0.247s-0.247 0.111-0.247 0.247v0z">
            </path>
            <path fill="#e5c569" style="fill: var(--color58, #e5c569)"
                d="M18.71 3.803c0 0.137 0.111 0.247 0.247 0.247s0.247-0.111 0.247-0.247v0c0-0.137-0.111-0.247-0.247-0.247s-0.247 0.111-0.247 0.247v0z">
            </path>
            <path fill="#000" style="fill: var(--color48, #000)"
                d="M13.8 14.219l-0.204-0.244-0.957 0.925 0.204 0.244zM14.028 13.998l1.509-1.459-0.004-0.005-0.432-0.014-1.277 1.234zM12.41 15.122l-1.678 1.622 0.111 0.334 1.771-1.712zM14.849 18.037l-0.204-0.244-1.915 1.852 0.204 0.244zM16.263 16.67l1.509-1.459-0.204-0.244-1.509 1.459zM15.078 17.816l0.957-0.925-0.204-0.244-0.957 0.925zM12.502 19.866l-0.553 0.535 0.111 0.334 0.646-0.624zM19.912 13.142l-0.204-0.244-0.79 0.764 0.204 0.244zM18.893 14.127l-0.204-0.244-0.892 0.863 0.204 0.244zM20.14 12.921l0.243-0.235-0.442-0.014-0.005 0.005zM16.787 19.858l0.957-0.925-0.204-0.244-0.957 0.925zM16.355 19.836l-1.915 1.852 0.204 0.244 1.915-1.852zM22.692 13.853l0.093-0.235-0.16 0.155zM19.507 16.788l0.204 0.244 0.892-0.863-0.204-0.244zM21.646 14.72l0.204 0.244 0.653-0.632 0.056-0.143-0.163-0.195zM20.627 15.705l0.204 0.244 0.79-0.764-0.204-0.244zM17.769 18.468l0.204 0.244 1.509-1.459-0.204-0.244zM14.211 21.909l-1.332 1.288 0.111 0.334 1.425-1.377zM18.248 21.605l0.204 0.244 0.957-0.925-0.204-0.244zM16.080 24.143l-0.204-0.244-1.574 1.522 0.204 0.244zM19.638 20.702l0.561-0.543 0.282-0.714-1.048 1.013zM14.073 25.642l-0.288 0.278 0.111 0.334 0.381-0.368zM16.105 23.678l0.204 0.244 1.915-1.852-0.204-0.244zM17.941 25.873l0.237-0.599-0.408 0.395zM15.738 27.632l-1.047 1.012 0.111 0.334 1.14-1.102zM16.171 27.655l1.574-1.522-0.204-0.244-1.574 1.522zM22.625 13.773l-0.874-1.044-0.424-0.013 1.070 1.279z">
            </path>
            <path fill="#000" style="fill: var(--color48, #000)"
                d="M22.396 13.994l0.163 0.195 0.133-0.335-0.067-0.080zM19.482 17.253l1.268 1.515 0.133-0.336-1.172-1.4zM17.569 14.966l0.228-0.221-1.839-2.198-0.415-0.013-0.005 0.005zM19.507 16.788l-1.505-1.799-0.228 0.221 1.505 1.799zM15.543 12.534l-0.009-0 0.004 0.005z">
            </path>
            <path fill="#000" style="fill: var(--color48, #000)"
                d="M18.001 14.989l-0.204-0.244-0.228 0.221 0.204 0.244zM19.278 17.009l0.204 0.244 0.229-0.221-0.204-0.244zM20.627 15.705l-1.505-1.799-0.228 0.221 1.505 1.799zM20.603 16.169l0.797 0.953 0.133-0.335-0.701-0.838zM18.918 13.662l-0.878-1.050-0.424-0.013 1.074 1.284z">
            </path>
            <path fill="#000" style="fill: var(--color48, #000)"
                d="M19.122 13.906l-0.204-0.244-0.228 0.221 0.204 0.244zM20.399 15.925l0.204 0.244 0.228-0.221-0.204-0.244zM16.558 20.079l1.461 1.747 0.228-0.221-1.461-1.747zM16.583 19.615l-1.505-1.799-0.229 0.221 1.505 1.799zM18.224 22.070l0.829 0.991 0.133-0.336-0.733-0.876zM10.82 12.727l-0.243 0.203 1.834 2.192 0.228-0.221zM12.843 15.145l-0.228 0.221 2.031 2.427 0.229-0.221z">
            </path>
            <path fill="#000" style="fill: var(--color48, #000)"
                d="M12.843 15.145l-0.204-0.244-0.228 0.221 0.204 0.244zM15.078 17.816l-0.204-0.244-0.229 0.221 0.204 0.244zM16.558 20.079l0.229-0.221-0.204-0.244-0.229 0.221zM18.020 21.826l0.204 0.244 0.229-0.221-0.204-0.244zM13.824 13.755l-1.095-1.309-0.424-0.013 1.291 1.543zM19.205 20.68l0.229-0.221-1.461-1.747-0.228 0.221zM17.54 18.689l0.228-0.221-1.505-1.799-0.229 0.221zM15.831 16.647l0.228-0.221-2.031-2.427-0.228 0.221zM19.409 20.923l0.331 0.396 0.133-0.336-0.236-0.282zM14.028 13.998l-0.204-0.244-0.228 0.221 0.204 0.244zM16.263 16.67l-0.204-0.244-0.228 0.221 0.204 0.244zM17.54 18.689l0.204 0.244 0.228-0.221-0.204-0.244z">
            </path>
            <path fill="#000" style="fill: var(--color48, #000)"
                d="M19.409 20.923l0.229-0.221-0.204-0.244-0.229 0.221zM19.936 12.677l-0.005-0.005-0.424-0.013 0.201 0.24zM21.417 14.941l0.229-0.221-1.505-1.799-0.228 0.221zM21.621 15.184l0.37 0.442 0.133-0.335-0.274-0.328z">
            </path>
            <path fill="#000" style="fill: var(--color48, #000)"
                d="M20.14 12.921l-0.204-0.244-0.228 0.221 0.204 0.244zM21.621 15.184l0.228-0.221-0.204-0.244-0.229 0.221zM17.808 26.208l0.087-0.221-0.151 0.146zM17.541 25.889l0.229-0.221-1.461-1.747-0.228 0.221zM12.73 19.645l-1.714-2.049 0.273 0.82 1.213 1.45zM14.643 21.931l-0.229 0.221 1.461 1.747 0.228-0.221zM12.934 19.889l-0.229 0.221 1.505 1.799 0.229-0.221zM12.73 19.645l-0.228 0.221 0.204 0.244 0.229-0.221z">
            </path>
            <path fill="#000" style="fill: var(--color48, #000)"
                d="M14.439 21.688l-0.229 0.221 0.204 0.244 0.229-0.221zM15.876 23.899l0.204 0.244 0.228-0.221-0.204-0.244zM17.541 25.889l0.204 0.244 0.151-0.146 0.045-0.114-0.171-0.205zM15.942 27.876l0.82 0.98 0.133-0.336-0.724-0.865zM14.302 25.421l-1.133-1.354 0.273 0.82 0.632 0.755zM14.506 25.665l-0.229 0.221 1.461 1.747 0.229-0.221z">
            </path>
            <path fill="#000" style="fill: var(--color48, #000)"
                d="M14.302 25.421l-0.229 0.221 0.204 0.244 0.229-0.221zM15.738 27.632l0.204 0.244 0.229-0.221-0.204-0.244zM15.269 30.38l0.605 0.723 0.133-0.336-1.010-1.208z">
            </path>
            <path fill="#e5c569" style="fill: var(--color58, #e5c569)"
                d="M18.215 1.9c0 0.137 0.111 0.247 0.247 0.247s0.247-0.111 0.247-0.247v0c0-0.137-0.111-0.247-0.247-0.247s-0.247 0.111-0.247 0.247v0z">
            </path>
            <path fill="#e5c569" style="fill: var(--color58, #e5c569)"
                d="M15.527 3.061c0 0.137 0.111 0.247 0.247 0.247s0.247-0.111 0.247-0.247v0c0-0.137-0.111-0.247-0.247-0.247s-0.247 0.111-0.247 0.247v0z">
            </path>
            <path fill="#e5c569" style="fill: var(--color58, #e5c569)"
                d="M19.334 2.642c0 0.137 0.111 0.247 0.247 0.247s0.247-0.111 0.247-0.247v0c0-0.137-0.111-0.247-0.247-0.247s-0.247 0.111-0.247 0.247v0z">
            </path>
            <path fill="#fff" style="fill: var(--color59, #fff)"
                d="M8.033 10.424s-2.457 3.627 1.536 2.116c0 0-0.827 3.339 2.969 1.411 1.058-0.537 1.331 1.344 1.331 1.344s1.706 0.739 2.833-1.914c1.126-2.653 1.195 1.175 2.526 1.075s2.184-1.176 2.389-2.15c0.205-0.974 1.741 0.806 1.911 1.209s2.198-1.924-0.649-4.971c-1.843-1.972-2.638-2.208-2.911-0.327s-1.012 1.433-2.311-0.446c-0.628-0.909-2.284-0.265-3.040 0.637-0.477 0.568-1.635 0.908-2.557-0.536s-3.959 0.235-4.028 2.553z">
            </path>
            <path fill="#040000" style="fill: var(--color52, #040000)"
                d="M14.42 15.547c-0.361 0-0.603-0.103-0.613-0.108l-0.081-0.035-0.013-0.088c-0.053-0.363-0.303-1.304-0.813-1.304-0.088 0-0.186 0.027-0.289 0.079-0.806 0.409-1.475 0.617-1.989 0.617-0.433 0-0.765-0.144-0.987-0.427-0.348-0.445-0.321-1.121-0.27-1.499-1.191 0.412-1.893 0.371-2.146-0.105-0.364-0.687 0.472-2.022 0.658-2.304 0.080-1.727 1.78-3.197 3.138-3.197 0.517 0 0.925 0.211 1.18 0.61 0.397 0.622 0.874 0.951 1.38 0.951 0.412 0 0.746-0.223 0.922-0.432 0.551-0.656 1.491-1.133 2.236-1.133 0.461 0 0.826 0.176 1.056 0.508 0.271 0.392 1.096 1.584 1.539 1.584 0.216-0 0.383-0.37 0.485-1.071 0.089-0.612 0.281-1.425 0.926-1.425 0.498 0 1.152 0.483 2.258 1.666 2.018 2.159 1.591 3.877 1.314 4.516-0.196 0.452-0.489 0.767-0.713 0.767-0.096 0-0.176-0.053-0.214-0.142-0.137-0.323-1.088-1.4-1.486-1.4-0.032 0-0.091 0-0.125 0.162-0.214 1.020-1.098 2.166-2.532 2.275-0.676 0.051-1.053-0.704-1.353-1.305-0.149-0.298-0.352-0.707-0.484-0.707-0.033 0-0.215 0.041-0.555 0.842-0.778 1.832-1.855 2.106-2.428 2.106zM14.009 15.175c0.083 0.024 0.228 0.056 0.41 0.056 0.604 0 1.465-0.332 2.136-1.912 0.308-0.725 0.561-1.035 0.847-1.035 0.328 0 0.532 0.409 0.768 0.883 0.272 0.546 0.577 1.164 1.045 1.13 1.271-0.096 2.055-1.117 2.246-2.024 0.076-0.36 0.305-0.413 0.435-0.413 0.581 0 1.512 1.113 1.741 1.52 0.108-0.077 0.334-0.347 0.476-0.813 0.211-0.697 0.317-2.132-1.349-3.915-0.628-0.672-1.522-1.566-2.026-1.566-0.11 0-0.444 0-0.612 1.153-0.084 0.576-0.257 1.342-0.799 1.342-0.433 0-0.954-0.498-1.8-1.721-0.17-0.246-0.438-0.371-0.795-0.371-0.649 0-1.506 0.438-1.994 1.019-0.286 0.341-0.722 0.545-1.164 0.545-0.432 0-1.069-0.19-1.648-1.098-0.244-0.383-0.631-0.463-0.913-0.463-1.102 0-2.773 1.233-2.823 2.936l-0.001 0.046-0.026 0.038c-0.271 0.4-0.918 1.541-0.666 2.016 0.079 0.149 0.254 0.221 0.534 0.221 0.354 0 0.852-0.12 1.48-0.358l0.282-0.107-0.072 0.293c-0.002 0.010-0.239 0.998 0.162 1.509 0.161 0.205 0.402 0.305 0.737 0.305 0.463 0 1.084-0.196 1.845-0.583 0.149-0.075 0.294-0.114 0.433-0.114 0.769 0 1.044 1.133 1.11 1.479z">
            </path>
        </symbol>
    </defs>
</svg>