<svg width="24" height="24" viewBox="0 0 24 24" fill="none" xmlns="http://www.w3.org/2000/svg">
<g opacity="0.8">
<path d="M21.5381 8.06687C21.5263 7.26111 21.3771 6.46173 21.0913 5.70812C20.5913 4.42124 19.5731 3.40365 18.284 2.9055C17.5388 2.62556 16.7509 2.47548 15.9533 2.45845C14.9277 2.41268 14.6025 2.3999 11.9988 2.3999C9.39519 2.3999 9.06148 2.3999 8.04326 2.45845C7.24682 2.47548 6.4589 2.62556 5.71363 2.9055C4.4246 3.40365 3.40532 4.42124 2.90634 5.70812C2.62594 6.45215 2.47454 7.23875 2.45961 8.03388C2.41376 9.05891 2.3999 9.38356 2.3999 11.9829C2.3999 14.5822 2.3999 14.9143 2.45961 15.9319C2.4756 16.7281 2.62594 17.5136 2.90634 18.2598C3.40639 19.5456 4.4246 20.5632 5.7147 21.0613C6.45677 21.3508 7.24468 21.5148 8.04433 21.5403C9.07107 21.5861 9.39626 21.5999 11.9999 21.5999C14.6035 21.5999 14.9373 21.5999 15.9555 21.5403C16.7519 21.5243 17.5398 21.3742 18.2862 21.0943C19.5752 20.5951 20.5934 19.5775 21.0935 18.2917C21.3739 17.5466 21.5242 16.7611 21.5402 15.9638C21.586 14.9398 21.5999 14.6152 21.5999 12.0148C21.5978 9.41549 21.5978 9.08552 21.5381 8.06687ZM11.9924 16.8984C9.26938 16.8984 7.06343 14.6961 7.06343 11.9776C7.06343 9.25902 9.26938 7.05674 11.9924 7.05674C14.7134 7.05674 16.9214 9.25902 16.9214 11.9776C16.9214 14.6961 14.7134 16.8984 11.9924 16.8984ZM17.1176 8.02217C16.4811 8.02217 15.9683 7.50912 15.9683 6.87472C15.9683 6.24033 16.4811 5.72728 17.1176 5.72728C17.752 5.72728 18.2659 6.24033 18.2659 6.87472C18.2659 7.50912 17.752 8.02217 17.1176 8.02217Z" fill="white"/>
<path d="M11.9942 14.9821C13.6527 14.9821 14.9972 13.6376 14.9972 11.9791C14.9972 10.3206 13.6527 8.97607 11.9942 8.97607C10.3357 8.97607 8.99121 10.3206 8.99121 11.9791C8.99121 13.6376 10.3357 14.9821 11.9942 14.9821Z" fill="white"/>
</g>
</svg>
