<svg aria-hidden="true" style="position: absolute; width: 0; height: 0; overflow: hidden;" version="1.1" xmlns="http://www.w3.org/2000/svg" xmlns:xlink="http://www.w3.org/1999/xlink">
<defs>
<symbol id="icon-Frame" viewBox="0 0 41 32">
<path fill="#ffd700" style="fill: var(--color1, #ffd700)" d="M40.745 1.355h-40.434v30.090h40.434v-30.090z"></path>
<path fill="#0057b7" style="fill: var(--color2, #0057b7)" d="M0.311 1.355h40.434v15.045h-40.434v-15.045z"></path>
</symbol>
<symbol id="icon-Mastercard" viewBox="0 0 47 32">
<path fill="#fafafa" style="fill: var(--color3, #fafafa)" d="M4.267 0.533h38.4c2.062 0 3.733 1.671 3.733 3.733v23.467c0 2.062-1.671 3.733-3.733 3.733h-38.4c-2.062 0-3.733-1.671-3.733-3.733v-23.467c0-2.062 1.671-3.733 3.733-3.733z"></path>
<path fill="none" stroke="#fafafa" style="stroke: var(--color3, #fafafa)" stroke-linejoin="miter" stroke-linecap="butt" stroke-miterlimit="4" stroke-width="1.0667" d="M4.267 0.533h38.4c2.062 0 3.733 1.671 3.733 3.733v23.467c0 2.062-1.671 3.733-3.733 3.733h-38.4c-2.062 0-3.733-1.671-3.733-3.733v-23.467c0-2.062 1.671-3.733 3.733-3.733z"></path>
<path fill="#ed0006" style="fill: var(--color4, #ed0006)" d="M23.467 23.29c-1.704 1.462-3.915 2.345-6.331 2.345-5.39 0-9.76-4.396-9.76-9.818s4.37-9.818 9.76-9.818c2.416 0 4.627 0.883 6.331 2.345 1.704-1.462 3.915-2.345 6.331-2.345 5.391 0 9.76 4.395 9.76 9.818s-4.37 9.818-9.76 9.818c-2.416 0-4.627-0.883-6.331-2.345z"></path>
<path fill="#f9a000" style="fill: var(--color5, #f9a000)" d="M23.467 23.29c2.099-1.801 3.429-4.48 3.429-7.472s-1.331-5.672-3.429-7.472c1.704-1.462 3.915-2.345 6.331-2.345 5.391 0 9.76 4.395 9.76 9.818s-4.37 9.818-9.76 9.818c-2.416 0-4.627-0.883-6.331-2.345z"></path>
<path fill="#ff5e00" style="fill: var(--color6, #ff5e00)" d="M23.467 23.29c2.099-1.801 3.429-4.48 3.429-7.472s-1.331-5.672-3.429-7.472c-2.099 1.801-3.429 4.48-3.429 7.472s1.331 5.672 3.429 7.472z"></path>
</symbol>
</defs>
</svg>
